<svg version="1.2" xmlns="http://www.w3.org/2000/svg" viewBox="0 0 663 674" width="663" height="674">
	<style>
		.s0 { fill: #ffffff } 
	</style>
	<path id="Path 0" fill-rule="evenodd" class="s0" d="m330.5 0.09c28.47-0.08 32.31 0.12 47 2.43 8.8 1.38 21.18 3.68 27.5 5.1 6.32 1.42 16.68 4.14 23 6.06 6.32 1.91 17.8 5.97 25.5 9.02 7.7 3.05 19.29 8.19 25.75 11.42 6.46 3.23 16.59 8.75 22.5 12.26 5.91 3.52 16.15 10.33 22.75 15.14 6.6 4.81 16.5 12.45 22 16.97 5.5 4.53 15.83 14.25 22.96 21.62 7.12 7.36 16.73 18.11 21.34 23.89 4.61 5.78 12.12 16.13 16.69 23 4.57 6.88 11.05 17.45 14.41 23.5 3.36 6.05 8.65 16.63 11.76 23.5 3.1 6.88 7.78 18.57 10.38 26 2.61 7.43 6.12 18.68 7.81 25 1.69 6.32 4.19 17.13 5.55 24 1.37 6.88 3.23 18.8 4.15 26.5 1.3 10.98 1.56 19.82 1.2 41-0.35 20.9-0.95 30.28-2.65 41.5-1.21 7.98-3.58 20.57-5.27 28-1.7 7.43-4.64 18.45-6.56 24.5-1.91 6.05-5.5 16.18-7.99 22.5-2.48 6.32-8.27 18.93-12.87 28-4.59 9.07-11.46 21.45-15.27 27.5-3.81 6.05-10.89 16.4-15.75 23-6.19 8.42-15.1 18.28-29.86 33.06-15.98 16.01-24.55 23.69-35.69 32-8.06 6.02-19.31 13.83-25 17.37-5.69 3.54-15.29 8.96-21.34 12.05-6.05 3.09-15.95 7.78-22 10.42-6.05 2.64-18.2 7.19-27 10.11-8.8 2.92-22.07 6.68-29.5 8.35-7.43 1.66-18.23 3.72-24 4.55-5.77 0.84-15.9 2.05-22.5 2.69-7.43 0.71-21.13 0.95-36 0.62-13.66-0.3-29.17-1.24-36-2.18-6.6-0.91-17.18-2.77-23.5-4.12-6.32-1.35-16.9-3.99-23.5-5.87-6.6-1.88-16.95-5.19-23-7.36-6.05-2.17-15.28-5.83-20.5-8.14-5.23-2.3-14.23-6.7-20-9.77-5.78-3.07-14.55-8.06-19.5-11.1-4.95-3.03-12.82-8.22-17.5-11.53-4.68-3.31-12.1-8.95-16.5-12.53-4.4-3.57-12.46-10.58-17.91-15.56-5.45-4.98-14.38-14.01-19.86-20.06-5.48-6.05-14.54-17.08-20.15-24.5-5.6-7.42-13.95-19.8-18.55-27.5-4.6-7.7-11.19-19.85-14.64-27-3.45-7.15-8.27-18.18-10.72-24.5-2.44-6.32-6.25-17.8-8.45-25.5-2.21-7.7-5.17-19.18-6.57-25.5-1.41-6.32-3.35-17.13-4.33-24-1.4-9.9-1.77-19.26-1.77-45 0-25.74 0.37-35.1 1.77-45 0.98-6.88 2.92-17.68 4.33-24 1.4-6.32 4.04-16.68 5.86-23 1.81-6.32 5.46-17.35 8.1-24.5 2.64-7.15 8.47-20.43 12.95-29.5 4.48-9.07 10.74-20.78 13.91-26 3.18-5.22 8.53-13.32 11.9-18 3.36-4.68 9.69-13 14.06-18.5 4.36-5.5 13.59-15.79 20.5-22.87 6.91-7.07 16.39-16.1 21.07-20.05 4.67-3.96 12.1-9.91 16.5-13.22 4.4-3.31 12.05-8.73 17-12.04 4.95-3.3 14.4-9 21-12.64 6.6-3.65 17.85-9.29 25-12.53 7.15-3.24 19.3-8.16 27-10.93 7.7-2.77 21.43-6.86 30.5-9.09 9.07-2.22 23.48-5.15 32-6.5 13.88-2.19 18.75-2.46 46.5-2.54zm-50 60.45c-4.4 0.86-13.85 3.17-21 5.11-7.15 1.95-18.4 5.58-25 8.08-6.6 2.5-18.64 7.85-26.75 11.9-8.11 4.06-20.71 11.39-28 16.3-7.29 4.91-17.75 12.67-23.25 17.24-5.5 4.57-15.18 13.49-21.51 19.82-6.33 6.33-14.83 15.79-18.9 21.01-4.07 5.22-10.97 14.9-15.35 21.5-4.38 6.6-11.65 19.43-16.16 28.5-5.45 10.96-10.09 22.21-13.8 33.5-3.08 9.35-6.75 22.18-8.17 28.5-1.41 6.32-3.25 16.23-4.07 22-1.04 7.24-1.51 18.87-1.51 37.5-0.01 19.25 0.43 30.01 1.54 37.5 0.85 5.77 2.63 15.23 3.95 21 1.32 5.77 3.57 14.55 5.01 19.5 1.44 4.95 4.2 13.27 6.14 18.5 1.94 5.23 6.79 16.25 10.79 24.5 4.19 8.65 11.51 21.35 17.3 30 5.52 8.25 13.63 19.27 18.01 24.5 4.39 5.23 13.54 14.91 20.35 21.53 6.81 6.61 16.65 15.33 21.88 19.38 5.22 4.04 13.32 9.92 18 13.06 4.68 3.14 13 8.19 18.5 11.23 5.5 3.03 15.62 8.01 22.5 11.05 6.87 3.04 18.57 7.55 26 10.02 7.43 2.48 19.12 5.67 26 7.11 6.87 1.44 17.79 3.29 24.25 4.12 7.35 0.94 20.08 1.5 34 1.5 13.95 0 26.91-0.57 34.75-1.53 6.87-0.85 18.12-2.83 25-4.41 6.87-1.58 17.68-4.54 24-6.57 6.32-2.04 15.77-5.51 21-7.72 5.23-2.21 13.77-6.15 19-8.77 5.23-2.61 13.1-6.87 17.5-9.46 4.4-2.59 14.07-9.06 21.49-14.38 10.05-7.19 17.84-14 30.52-26.66 10.48-10.46 20.5-21.62 26.05-29 4.96-6.6 11.66-16.27 14.88-21.5 3.23-5.23 8.71-15.13 12.18-22 3.47-6.88 8.52-18.35 11.22-25.5 2.71-7.15 6.29-17.95 7.96-24 1.68-6.05 3.96-15.95 5.08-22 1.12-6.05 2.54-14.82 3.16-19.5 0.62-4.68 1.11-19.07 1.1-32-0.02-15.81-0.54-27.1-1.6-34.5-0.86-6.05-2.24-14.6-3.08-19-0.84-4.4-2.68-12.27-4.1-17.5-1.41-5.22-4.6-15.13-7.08-22-2.48-6.88-7.33-18.35-10.79-25.5-3.46-7.15-9.31-17.95-13-24-3.69-6.05-10.56-16.18-15.26-22.5-4.7-6.32-14.89-17.96-22.64-25.86-7.75-7.9-18.82-18.18-24.59-22.85-5.77-4.67-15.9-12.06-22.5-16.43-6.6-4.37-17.85-10.92-25-14.55-7.15-3.64-17.95-8.6-24-11.03-6.05-2.43-16.85-6.14-24-8.24-7.15-2.09-17.73-4.75-23.5-5.91-5.77-1.15-17.14-2.78-25.25-3.61-8.11-0.84-21.84-1.47-30.5-1.41-8.66 0.06-21.38 0.73-28.25 1.48-6.88 0.75-16.1 2.08-20.5 2.95zm-114.5 105.46h37.5l127.49 127.5 20.26-20c11.14-11 40.05-39.69 108.25-107.53l37 0.53 0.62 37-82.06 81.75c-45.13 44.96-82.62 81.77-83.31 81.79-0.69 0.02-25.54-23.94-55.24-53.25-52.74-52.06-54-53.22-54.63-50.29-0.35 1.65-0.7 48.45-0.77 104-0.06 55.55-0.45 107.41-1.61 129.51l-26.25-0.01c-22.44 0-26.32-0.22-26.75-1.5-0.28-0.82-0.5-75.3-0.5-165.5zm331 75v125.5c0 81.33-0.35 126.38-2 130.5h-25.5c-24.5 0-25.54-0.08-26.5-2-0.63-1.27-1-25-1-65 0-34.65-0.35-63-0.78-63-0.43 0-24.63 23.85-53.78 53-40.86 40.86-53.57 53.01-55.47 53.04-1.6 0.03-3.89-1.39-6.47-4-2.2-2.22-4.68-4.73-5.5-5.57-0.82-0.84-6.82-6.81-13.33-13.25-6.51-6.45-12.56-12.4-13.45-13.22-0.89-0.82-4.12-4.2-7.17-7.5-3.05-3.3-7.13-7.57-9.05-9.5-1.93-1.92-6.2-5.99-9.5-9.04-3.3-3.05-7.12-6.81-8.5-8.37-1.37-1.55-5.87-5.92-17.5-16.62l-0.66-20.23c-0.37-11.13-0.45-26.09-0.19-33.24 0.26-7.15 0.67-14.01 0.91-15.25 0.28-1.44 1.16-2.25 2.44-2.25 1.1 0 2.56 0.9 3.25 2 0.69 1.11 1.81 2.01 2.5 2 0.69 0 1.9 1.01 2.7 2.25 0.8 1.24 6.31 7.05 12.25 12.92 5.94 5.87 12.04 11.83 13.55 13.25 1.51 1.42 3.19 3.14 3.73 3.83 0.54 0.69 2.45 2.75 4.25 4.58 1.8 1.83 12.5 12.54 23.77 23.79 11.27 11.26 20.95 20.43 21.5 20.39 0.55-0.04 2.46-0.96 4.25-2.04 1.79-1.08 3.48-2.87 3.75-3.97 0.27-1.1 0.95-2 1.5-2 0.55 0 3.02-2.14 5.49-4.75 2.47-2.61 8.77-9.59 14-15.5 5.23-5.91 9.85-10.75 10.26-10.75 0.41 0 3.45-2.77 6.75-6.16 3.3-3.38 8.25-8.3 11-10.92 2.75-2.61 5.45-5.3 6-5.97 0.55-0.66 5.39-5.65 10.75-11.08 5.36-5.43 10.18-9.87 10.7-9.87 0.53 0 1.99-1.06 3.25-2.35 1.27-1.29 3.87-4.3 5.8-6.67 1.93-2.38 4.31-5.04 5.29-5.91 0.99-0.86 3.24-3.1 5-4.98 1.77-1.87 4.08-4.12 5.15-5 1.07-0.87 3.09-2.93 4.5-4.56 1.41-1.64 4.62-5.02 7.15-7.5 2.52-2.49 6.57-6.38 9-8.64 2.42-2.26 5.66-5.75 7.2-7.75 1.53-2 5.24-5.44 8.25-7.64 3-2.2 6.7-5.83 8.21-8.06 1.51-2.23 3.87-4.69 5.25-5.46 1.37-0.77 3.51-1.42 7-1.48z"/>
</svg>