<?xml version="1.0" encoding="utf-8"?>

<svg version="1.0" id="katman_1" xmlns="http://www.w3.org/2000/svg" xmlns:xlink="http://www.w3.org/1999/xlink" x="0px" y="0px"
	 viewBox="0 0 60 44.3" style="enable-background:new 0 0 60 44.3;" xml:space="preserve">
<path fill="#ffffff" d="M56,18.15H13.66L24.98,6.83c1.56-1.56,1.56-4.09,0-5.66s-4.1-1.56-5.66,0L1.17,19.32l0,0c-0.19,0.19-0.35,0.39-0.5,0.61
	c-0.06,0.09-0.1,0.19-0.15,0.28c-0.08,0.13-0.16,0.27-0.22,0.41c-0.05,0.12-0.07,0.24-0.11,0.36c-0.04,0.13-0.09,0.26-0.12,0.39
	c-0.04,0.2-0.05,0.41-0.06,0.62c0,0.06-0.02,0.11-0.02,0.16c0,0.06,0.02,0.12,0.02,0.18c0.01,0.2,0.02,0.4,0.06,0.6
	c0.03,0.14,0.08,0.28,0.12,0.41c0.03,0.11,0.06,0.23,0.1,0.33c0.06,0.15,0.15,0.3,0.23,0.44c0.05,0.08,0.08,0.17,0.13,0.25
	c0.15,0.22,0.32,0.43,0.51,0.62l18.14,18.14c0.78,0.78,1.81,1.17,2.83,1.17s2.05-0.39,2.83-1.17c1.56-1.56,1.56-4.1,0-5.66
	L13.66,26.15H56c2.21,0,4-1.79,4-4S58.21,18.15,56,18.15z"/>
</svg>
