<svg version="1.2" xmlns="http://www.w3.org/2000/svg" viewBox="0 0 512 512" width="512" height="512">
	<style>
		.s0 { fill: #ffffff } 
	</style>
	<path id="Path 0" class="s0" d="m273 0.75c-0.01 0.41-2.11 1.65-4.68 2.75-2.82 1.2-6.43 3.99-9.06 7-2.41 2.75-5.26 7.36-6.32 10.25-1.07 2.89-1.94 7.05-1.94 9.25 0 2.2 0.87 6.36 1.94 9.25 1.14 3.09 3.92 7.36 6.75 10.37 3.44 3.67 6.44 5.73 10.56 7.25 5.69 2.11 6.64 2.13 86.5 2.15l80.75 0.01c6.11 3.46 8.81 6.05 9.94 7.97 2.06 3.5 2.06 3.61 2.06 189 0 185.39 0 185.5-2.06 189-1.13 1.93-3.83 4.51-6 5.73l-3.94 2.24c-160.61 0.03-161.56 0.05-167.25 2.16-4.12 1.52-7.12 3.58-10.56 7.25-2.83 3.01-5.61 7.28-6.75 10.37-1.07 2.89-1.94 7.27-1.94 9.75 0 2.48 0.93 6.86 2.07 9.75 1.18 3.02 4.05 7.28 6.75 10.02 2.57 2.63 6.61 5.55 8.96 6.5 2.36 0.95 4.27 2.07 4.25 2.48-0.01 0.41 38.45 0.75 85.47 0.75 47.02 0 85.67-0.34 85.88-0.75 0.2-0.41 2.11-1.13 4.25-1.59 2.13-0.47 7.47-2.29 11.87-4.06 4.4-1.77 10.7-5.05 14-7.29 3.3-2.24 8.72-6.94 12.05-10.44 3.33-3.5 7.7-9.07 9.7-12.37 2-3.3 4.79-8.81 6.2-12.25 1.4-3.44 3.23-10.07 4.05-14.75 1.3-7.35 1.5-33.23 1.51-190.75 0.01-128.83-0.32-184.74-1.11-190.75-0.61-4.67-2.03-11.2-3.14-14.5-1.11-3.3-2.92-7.8-4.03-10-1.1-2.2-3.38-6.02-5.07-8.5-1.7-2.48-5.57-7.13-8.62-10.34-3.05-3.21-8.02-7.54-11.04-9.61-3.02-2.08-7.86-4.96-10.75-6.41-2.89-1.45-8.29-3.38-12-4.28-3.71-0.9-7.2-2.03-7.75-2.51-0.56-0.5-38.64-0.88-86.25-0.87-46.89 0.01-85.25 0.36-85.25 0.77zm-44 116.05c-2.87 0.98-6.53 3.57-10.08 7.12-4.38 4.37-6.06 6.99-7.78 12.08-2.03 6.05-2.09 6.91-0.81 12.5 0.75 3.3 2.18 7.57 3.17 9.5 0.98 1.93 12.64 14.08 25.9 27.02 13.25 12.93 27.6 26.88 31.88 31 4.27 4.11 7.76 8.04 7.75 8.73-0.02 0.99-25.11 1.25-122.03 1.25-84.95 0-123.44 0.33-126.75 1.1-2.61 0.6-6.72 2.06-9.13 3.25-2.4 1.18-6.51 4.4-9.12 7.15-3.29 3.46-4.95 6.15-5.38 8.75-0.39 2.39-1.16 3.75-2.12 3.75-1.17 0-1.5 1.33-1.5 6 0 4.44 0.39 6.13 1.5 6.5 0.83 0.27 1.49 1.29 1.49 2.25-0.01 0.96 1.27 3.77 2.85 6.25 1.59 2.48 3.95 5.49 5.27 6.7 1.31 1.2 5.43 3.57 9.14 5.25l6.75 3.05c223.44 0 249 0.26 248.98 1.25-0.01 0.69-7.18 8.23-15.94 16.75-8.75 8.52-23.07 22.48-31.82 31-9.87 9.62-16.77 17.21-18.2 20-1.83 3.56-2.32 6.17-2.36 12.5-0.03 5.46 0.49 9.19 1.65 11.75 0.93 2.06 3.6 5.81 5.94 8.33 2.34 2.51 6.61 5.66 9.5 7 3.85 1.77 6.98 2.42 11.75 2.42 5.64 0 7.32-0.48 12.75-3.61q6.25-3.61 23.75-20.83c9.63-9.48 35.73-35.09 58-56.91 22.27-21.83 41.75-41.36 43.27-43.42 1.53-2.05 3.49-6.21 4.35-9.23 0.87-3.02 1.36-7.07 1.08-9-0.27-1.93-1.42-5.97-2.56-9-1.91-5.09-5.75-9.1-51.18-53.5-27.01-26.4-54.36-53.1-60.78-59.34-8.8-8.55-13.22-12.07-17.93-14.25-4.63-2.15-7.61-2.88-11.5-2.78-2.89 0.07-7.27 0.82-9.75 1.67z"/>
</svg>