<svg version="1.2" xmlns="http://www.w3.org/2000/svg" viewBox="0 0 564 564" width="564" height="564">
	<style>
		.s0 { fill: #51a2ff } 
	</style>
	<path id="Path 0" fill-rule="evenodd" class="s0" d="m388.51 0.53l4.05 3.03c2.23 1.66 5.04 5.01 6.25 7.43 1.58 3.15 2.21 6.62 2.21 19.84l61.16 0.55 7.16 3.41c3.94 1.88 9.33 5.6 11.97 8.27 2.65 2.67 5.97 6.83 7.38 9.26 1.42 2.42 3.35 7.38 4.29 11.02 1.52 5.86 1.72 27.99 1.72 194.5 0 163.75-0.22 188.71-1.66 194.23-0.91 3.48-3.31 8.94-5.33 12.12-2.02 3.18-5.49 7.4-7.71 9.37-2.23 1.97-5.91 4.5-8.18 5.63-2.27 1.13-5.87 2.61-7.99 3.29-2.12 0.68-7.18 1.62-18.64 2.92l22.11 26.45c12.16 14.55 23.04 28.43 24.17 30.86 1.14 2.42 2.07 5.89 2.08 7.71 0.02 1.82-0.96 4.92-2.17 6.89-1.21 1.97-3.94 4.32-6.06 5.23-3.24 1.39-10.43 1.61-85.96 1.11l-6.06-2.94c-3.33-1.62-8.41-5.09-11.29-7.72-3.66-3.33-11.15-14.24-44.47-67.59h-111.08l-19.62 31.41c-13.7 21.94-21.19 32.85-24.85 36.18-2.88 2.63-7.96 6.1-17.35 10.66l-41.05 0.27c-34.48 0.23-41.67 0.01-44.91-1.38-2.12-0.91-4.85-3.26-6.06-5.23-1.21-1.97-2.19-5.07-2.17-6.89 0.01-1.82 0.94-5.29 2.08-7.71 1.13-2.43 12.01-16.31 46.28-57.31l-7.39-0.84c-4.07-0.46-9.13-1.4-11.25-2.08-2.12-0.68-5.72-2.16-7.99-3.29-2.27-1.13-5.95-3.66-8.18-5.63-2.22-1.97-5.69-6.19-7.71-9.37-2.02-3.18-4.42-8.64-5.33-12.12-1.44-5.52-1.66-30.48-1.66-194.23 0-163.75 0.22-188.7 1.66-194.23 0.91-3.48 2.6-8.19 3.76-10.46 1.15-2.28 4.5-6.57 7.43-9.55 3.07-3.11 8.4-6.87 19.67-12.22l61.16-0.55v-7.71c0-5.38 0.64-8.97 2.09-11.85 1.15-2.27 3.01-4.97 4.13-5.98 1.13-1.02 3.54-2.63 5.36-3.59 2.95-1.54 14.62-1.7 213.95-1.17zm-210.18 24.32l0.08 5.98h207.18c0-9.98-0.59-12.71-1.66-13.77-1.44-1.45-14.25-1.66-101.85-1.66-89.59 0-100.4 0.19-102.01 1.73-1.27 1.22-1.79 3.53-1.74 7.72zm-76.51 24c-3.03 1.42-7.37 4.63-9.64 7.15-2.5 2.77-4.79 6.87-5.8 10.37-1.45 5.06-1.66 29.14-1.64 191.47 0.01 112.76 0.42 187.2 1.05 189.54 0.58 2.13 2.68 6.33 4.68 9.35 2.71 4.08 5.3 6.33 10.17 8.81l6.54 3.33h349.64c11.41-5.81 14-8.06 16.71-12.14 2-3.02 4.1-7.22 4.68-9.35 0.63-2.34 1.04-76.78 1.05-189.54 0.02-162.33-0.19-186.41-1.64-191.47-1.01-3.5-3.3-7.6-5.8-10.37-2.27-2.52-6.61-5.73-9.64-7.15l-5.51-2.57h-349.34zm-14.56 499.37l71.32 0.55c9.82-5.09 13.91-8.19 15.42-10.17 1.51-1.99 9.82-14.89 18.46-28.68l15.71-25.07h-68.26zm284.42-38.29c8.57 13.79 16.81 26.69 18.32 28.67 1.51 1.99 5.6 5.09 9.09 6.89l6.33 3.28 71.32-0.55-52.58-63.36h-68.05zm56.34-434.47l5.95 2.76c3.27 1.51 7.51 4.49 9.42 6.61 1.91 2.12 4.44 6.34 5.62 9.37 2.07 5.3 2.15 8.94 2.15 186.24l-2.76 5.95c-1.51 3.27-4.49 7.51-6.61 9.42-2.12 1.91-6.34 4.44-9.37 5.62-5.36 2.09-9.43 2.15-150.42 2.15-140.99 0-145.06-0.06-150.42-2.15-3.03-1.18-7.25-3.71-9.37-5.62-2.12-1.91-5.1-6.15-9.37-15.37v-181.83l2.55-5.51c1.39-3.03 3.63-6.69 4.96-8.12 1.32-1.44 4.15-3.74 6.27-5.1 2.12-1.37 6.09-3 8.82-3.62 3.27-0.75 53.8-1.07 292.58-0.8zm-295.13 20.05c-1.7 1.7-3.56 4.83-4.13 6.95-0.62 2.3-0.92 38.47-0.76 89.27 0.25 79.72 0.4 85.62 2.24 88.71 1.08 1.81 3.44 4.17 5.23 5.23 3.07 1.81 12.07 1.93 146.53 1.93 134.46 0 143.46-0.12 146.53-1.93 1.79-1.06 4.03-3.29 4.96-4.96 1.48-2.65 1.69-13.97 1.69-91.19 0-77.21-0.21-88.53-1.69-91.19-0.93-1.67-3.29-4.02-5.24-5.23-3.49-2.18-5.62-2.21-144.6-2.39-77.58-0.1-142.54 0.24-144.36 0.75-1.82 0.52-4.7 2.34-6.4 4.05zm49.66 248.35c3.78-0.03 9.73 0.84 13.22 1.95 3.48 1.1 8.32 3.26 10.74 4.8 2.43 1.54 6.33 4.72 8.67 7.08 2.34 2.36 5.78 7.52 7.63 11.46 1.85 3.94 3.66 9.89 4.02 13.22 0.35 3.33 0.35 8.79-0.01 12.12-0.37 3.34-2.11 9.23-3.87 13.09q-3.21 7.03-9.27 12.74c-3.34 3.14-8.54 6.87-11.57 8.31-3.03 1.43-8.49 3.11-12.13 3.74-4.77 0.82-8.75 0.78-14.32-0.16-4.24-0.72-10.37-2.68-13.61-4.36-3.24-1.68-8.14-5.28-10.89-8.01-2.74-2.73-6.42-7.94-8.17-11.57-1.75-3.64-3.61-9.59-4.13-13.23-0.53-3.63-0.59-9.34-0.15-12.67 0.45-3.33 2.17-9.04 3.82-12.67 1.66-3.64 4.27-8.1 5.82-9.92 1.54-1.82 5.34-5.2 8.44-7.52 3.11-2.31 8.62-5.14 12.26-6.27 3.63-1.14 9.71-2.09 13.5-2.13zm-19.85 23.92c-2.28 2.27-5.18 6.6-6.45 9.63-1.29 3.1-2.3 7.92-2.3 11.02 0 3.36 1.01 7.85 2.59 11.48 1.62 3.75 4.44 7.58 7.55 10.26 2.81 2.43 7.34 4.98 10.47 5.89 3.03 0.88 6.75 1.6 8.26 1.6 1.52 0 5.24-0.73 8.27-1.62 3.03-0.89 7.7-3.49 10.38-5.79 2.72-2.33 6.01-6.63 7.43-9.7 1.77-3.82 2.55-7.53 2.55-12.12 0-4.59-0.78-8.3-2.55-12.12-1.43-3.1-4.69-7.33-7.43-9.66-2.68-2.29-7.11-4.9-9.83-5.8-2.73-0.91-6.95-1.62-9.37-1.58-2.42 0.03-6.89 1.04-9.92 2.23-3.03 1.19-7.37 4.02-9.65 6.28zm217.93-23.94c3.64-0.05 9.83 0.88 13.77 2.07 3.95 1.18 9.7 4.04 12.81 6.36 3.1 2.31 6.9 5.69 8.44 7.51 1.55 1.82 4.17 6.28 5.82 9.92 1.66 3.63 3.37 9.34 3.82 12.67 0.44 3.33 0.38 9.04-0.14 12.67-0.53 3.64-2.38 9.59-4.13 13.23-1.75 3.63-5.44 8.84-8.18 11.57-2.75 2.73-7.65 6.33-10.89 8.01-3.24 1.68-9.12 3.64-13.06 4.36-5.19 0.94-9.13 0.99-14.32 0.16-3.94-0.63-9.64-2.31-12.67-3.74-3.04-1.44-8.24-5.17-11.58-8.31q-6.06-5.71-9.27-12.74c-1.76-3.86-3.5-9.75-3.87-13.09-0.36-3.33-0.36-8.79-0.01-12.12 0.36-3.33 2.17-9.28 4.02-13.22 1.85-3.94 5.29-9.1 7.63-11.46 2.34-2.36 6.24-5.54 8.67-7.08 2.42-1.54 7.13-3.67 10.47-4.74 3.33-1.07 9.03-1.99 12.67-2.03zm-18.1 22.8c-2.74 2.33-6 6.58-7.43 9.67-1.77 3.82-2.55 7.53-2.55 12.12 0 4.59 0.78 8.3 2.55 12.12 1.42 3.07 4.71 7.37 7.43 9.7 2.68 2.3 7.35 4.9 10.39 5.79 3.03 0.89 6.74 1.62 8.26 1.62 1.52 0 5.23-0.72 8.27-1.6 3.12-0.91 7.65-3.46 10.46-5.89 3.11-2.68 5.93-6.51 7.55-10.26 1.57-3.61 2.6-8.14 2.6-11.48 0.01-3.23-0.97-7.79-2.36-11.02-1.31-3.03-4.22-7.38-6.46-9.68-2.26-2.3-6.66-5.13-9.87-6.33-3.18-1.2-7.89-2.13-10.47-2.08-2.57 0.04-6.66 0.78-9.09 1.62-2.42 0.85-6.6 3.41-9.28 5.7z"/>
</svg>