<svg version="1.2" xmlns="http://www.w3.org/2000/svg" viewBox="0 0 2133 2133" width="2133" height="2133">
	<style>
		.s0 { fill: #ffffff } 
	</style>
	<path id="Path 0" class="s0" d="m335.5 1.08c-24.75 0.41-47.02 1.02-49.5 1.36-2.48 0.33-7.2 1.69-10.5 3.01-3.3 1.32-13.88 4.5-23.5 7.06-9.63 2.56-23.13 6.67-30 9.14-6.88 2.46-17 6.66-22.5 9.32-5.5 2.67-16.53 8.77-24.5 13.57-7.97 4.79-17.88 11.09-22 14-4.13 2.9-12 9.03-17.49 13.62-5.5 4.59-15.44 13.74-22.08 20.34-6.65 6.6-16.11 16.72-21.03 22.5-4.91 5.78-11.68 14.1-15.04 18.5-3.35 4.4-9.69 13.85-14.09 21-4.39 7.15-9.8 16.6-12.01 21-2.22 4.4-5.24 10.93-6.72 14.5-1.48 3.57-4.71 11.9-7.18 18.5-2.48 6.6-6.03 18.07-7.89 25.5-1.86 7.43-4.55 19.8-5.97 27.5-1.47 7.91-3 21.17-3.53 30.5-0.52 9.07-1.4 52.27-1.95 96-0.58 46.36-1 339.18-0.99 702.5 0 365.45 0.41 646.15 0.98 679 0.54 30.8 1.44 63.88 2.01 73.5 0.57 9.63 1.72 21.55 2.56 26.5 0.84 4.95 3.36 16.2 5.6 25 2.24 8.8 5.63 20.5 7.54 26 1.92 5.5 5.84 15.17 8.73 21.5 2.89 6.33 8.3 17.13 12.01 24 3.72 6.88 9.6 16.78 13.06 22 3.47 5.22 11.15 15.58 17.08 23 5.93 7.42 16.88 19.6 24.34 27.05 7.46 7.45 17.61 16.92 22.56 21.05 4.95 4.13 11.92 9.73 15.49 12.45 3.57 2.72 11.22 7.8 17 11.28 5.78 3.48 17.26 9.64 25.51 13.7 8.25 4.05 21.3 9.82 29 12.8 7.7 2.99 19.62 7.25 26.5 9.46 6.87 2.22 15.65 4.8 19.5 5.73 3.85 0.94 9.25 2.81 12 4.15l5 2.44c89.13 1.42 223.22 1.84 355.5 1.84 132.28 0 266.49-0.44 298.25-0.98 56.64-0.95 57.79-1.01 60-3.07 1.24-1.16 8.1-4.96 15.25-8.44 7.37-3.59 16.68-9.11 21.5-12.76 4.67-3.54 11.65-9.54 15.5-13.34 3.85-3.8 10.04-10.95 13.75-15.88 3.71-4.94 9.22-13.93 12.23-19.98 3.32-6.68 6.47-14.93 8.02-21 1.41-5.5 2.88-12.37 3.28-15.26 0.4-2.9 1.06-5.26 1.47-5.25 0.41 0 0.75-3.14 0.75-6.99 0-3.85-0.34-7-0.75-6.99-0.41 0-1.31-3.71-1.99-8.25-0.68-4.54-2.41-12.31-3.84-17.26-1.43-4.95-4.41-12.6-6.62-17-2.22-4.4-6.78-12.05-10.15-17-3.37-4.95-10.85-13.87-16.64-19.82-5.78-5.95-13.66-12.98-17.51-15.62-3.85-2.64-9.7-6.15-13-7.8-3.3-1.65-9.38-4.15-13.5-5.55-4.13-1.4-11.77-3.05-17-3.66-5.23-0.6-19.85-1.59-32.5-2.18-14.88-0.7-132.65-1.24-333.5-1.53l-310.5-0.45c-16.27-9.24-23.87-14.27-27.38-17.15-3.5-2.88-8.4-7.94-10.88-11.24-2.49-3.3-5.09-7.35-5.8-9-0.71-1.65-1.77-6.83-2.36-11.5-0.59-4.67-1.64-23.35-2.33-41.5-0.97-25.56-1.25-190.17-1.25-730 0-539.83 0.28-704.44 1.25-730 0.69-18.15 1.72-36.82 2.3-41.5 0.58-4.68 1.9-10.3 2.94-12.5 1.04-2.2 3.83-6.22 6.2-8.94 2.37-2.71 7.68-7.61 11.81-10.87 4.12-3.26 11.55-8.34 16.5-11.27l9-5.34c557.72-0.67 651.62-1.1 661-1.94 7.15-0.63 15.7-1.63 19-2.22 3.3-0.59 9.37-2.22 13.5-3.62 4.12-1.41 10.2-3.91 13.5-5.56 3.3-1.65 9.15-5.16 13-7.8 3.85-2.64 11.73-9.67 17.51-15.62 5.79-5.95 13.27-14.87 16.64-19.82 3.37-4.95 7.94-12.6 10.16-17 2.23-4.4 5.16-11.82 6.53-16.5 1.36-4.68 3.08-12.21 3.82-16.75 0.74-4.54 1.68-8.26 2.09-8.25 0.41 0 0.75-2.7 0.75-6 0-3.3-0.34-6-0.75-5.99-0.41 0-1.29-3.49-1.94-7.75-0.66-4.27-2.37-11.81-3.81-16.76-1.44-4.95-4.64-13.05-7.11-18-2.47-4.95-7.51-13.47-11.19-18.94-3.69-5.47-10.08-13.52-14.2-17.89-4.13-4.37-11.33-10.81-16-14.32-4.67-3.5-13.9-9-20.5-12.22-6.6-3.22-13.46-7.04-15.25-8.49l-3.25-2.64c-87.19-1.52-225.45-1.89-363.5-1.81-138.05 0.07-271.25 0.47-296 0.89zm1171.5 478.49c-1.38 0.24-5.88 0.92-10 1.51-4.13 0.59-11.1 1.99-15.5 3.1-4.4 1.11-10.92 3.51-14.5 5.33-3.58 1.82-9.88 5.7-14 8.62-4.13 2.91-12.61 10.27-18.87 16.34-6.25 6.06-14.07 14.63-17.37 19.03-3.31 4.4-7.53 11.04-9.39 14.75-1.85 3.71-5.11 11.81-7.25 18-2.13 6.19-4.66 14.85-5.63 19.25-1.31 5.97-1.58 9.9-1.06 15.5 0.39 4.12 2.43 14.25 4.54 22.5 2.1 8.25 5.56 19.5 7.67 25 2.62 6.82 5.37 11.91 8.67 16 2.65 3.3 12.18 13.87 21.17 23.5 8.99 9.62 36.3 37.32 60.68 61.53 24.39 24.22 68.42 67.35 97.84 95.85 29.42 28.49 58.9 57.28 65.5 63.97 6.6 6.69 14.36 14.97 17.25 18.41 2.89 3.43 5.26 6.8 5.26 7.49 0.01 0.77-2.2 1.55-5.75 2.03-3.17 0.42-20.16 1.23-37.76 1.78-18.21 0.58-213.6 1.41-453.5 1.92-238.27 0.51-443.67 1.38-472.5 1.99-28.05 0.6-54.83 1.48-59.5 1.95-5.34 0.54-13.14 2.41-21 5.03-6.88 2.29-16.1 5.88-20.5 7.97-4.4 2.09-12 6.68-16.9 10.19-4.89 3.51-12.94 10.22-17.89 14.89-4.94 4.67-11.69 11.87-14.98 16-3.29 4.12-7.33 10.2-8.98 13.5-1.64 3.3-3.87 9.6-4.96 14-1.09 4.4-2.61 9.24-3.38 10.75-0.89 1.73-2.58 3.03-4.58 3.5-1.74 0.41-3.87 1.85-4.75 3.21-1.3 2.02-1.58 5.82-1.58 21.5 0 12.56 0.43 20.32 1.25 22.79 0.86 2.58 2.5 4.53 5.25 6.25 2.57 1.61 4.21 3.48 4.6 5.25 0.33 1.51 1.05 4.55 1.61 6.75 0.56 2.2 2.82 7.6 5.03 12 2.22 4.4 5.84 10.7 8.04 14 2.21 3.3 7.27 10.05 11.25 15 4.14 5.16 9.73 10.76 13.1 13.13 3.23 2.27 9.7 6.26 14.37 8.86 4.67 2.6 17.05 8.65 27.5 13.45l19 8.72c712.22 1.02 942.17 1.74 970.5 2.28 28.33 0.53 54.99 1.32 59.26 1.76 4.27 0.44 7.76 1.14 7.75 1.55-0.01 0.41-2.63 3.79-5.84 7.5-3.2 3.71-13.22 14.35-22.25 23.65-9.03 9.29-56.92 56.39-106.42 104.65-49.5 48.26-97.05 95.33-105.66 104.6-8.61 9.27-18.48 20.22-21.92 24.35-3.43 4.12-7.74 9.75-9.56 12.5-1.82 2.75-4.4 7.7-5.74 11-1.35 3.3-3.27 9.83-4.27 14.5-1.5 6.95-1.82 12.88-1.78 32.5 0.05 20.21 0.38 25.5 2.09 33.5 1.11 5.22 3.46 12.42 5.22 16 1.75 3.58 6.21 10.77 9.9 15.99 3.7 5.22 11 13.77 16.23 19 5.23 5.23 13.55 12.38 18.5 15.9 4.94 3.51 13.49 8.54 18.99 11.18 5.5 2.64 13.6 5.77 18 6.96 6.42 1.74 11.84 2.27 27.5 2.7 16.35 0.45 20.79 0.25 27.5-1.23 5.25-1.16 11.95-3.79 19.5-7.64 6.33-3.24 15.55-8.79 20.5-12.35 4.95-3.56 15.75-12.26 24-19.35 8.25-7.09 23.55-20.98 34-30.88 10.45-9.9 36.56-35.28 58.03-56.39 21.46-21.12 84.91-83.34 141-138.28 56.08-54.93 135.94-133.91 177.47-175.5 69.6-69.7 75.89-76.27 80.46-84.11 2.73-4.67 6.88-13.22 9.23-19 2.35-5.78 5.19-14.55 6.31-19.5 1.12-4.95 2.32-13.72 2.67-19.5 0.48-8.1 0.22-12.33-1.12-18.5-0.95-4.4-3.7-14.08-6.11-21.5-2.41-7.43-6.07-16.31-8.16-19.75-2.08-3.43-7.38-10.6-11.78-15.93-4.4-5.32-18.82-20.74-32.04-34.25-13.23-13.51-42.25-42.59-64.5-64.6-22.25-22.02-80.06-78.72-128.47-126-48.4-47.29-115.45-112.75-149-145.49-33.54-32.74-69.32-67.57-79.49-77.41-10.17-9.84-23.67-22.36-30-27.81-6.33-5.45-16.45-13.24-22.5-17.3-6.05-4.07-15.61-9.44-21.25-11.93-5.64-2.49-14.19-5.69-19-7.11-6.71-1.98-11.55-2.66-20.75-2.93-6.6-0.19-13.13-0.16-14.5 0.08z"/>
</svg>