<svg version="1.2" xmlns="http://www.w3.org/2000/svg" viewBox="0 0 663 578" width="663" height="578">
	<style>
		.s0 { opacity: 1;fill: #ffffff } 
	</style>
	<path id="Path 0" fill-rule="evenodd" class="s0" d="m460 0.04c3.57 0 8.3 0.51 10.5 1.15 3.3 0.95 9.87 6.97 37.36 34.23 19.17 19.01 33.95 34.46 34.75 36.33 0.76 1.79 1.39 4.71 1.38 6.5-0.01 1.79-1.13 5.61-2.5 8.5-1.96 4.13-2.48 6.8-2.46 12.5 0.02 5.59 0.52 8.05 2.16 10.75 1.17 1.93 3.52 5 5.22 6.84 1.7 1.83 4.78 4.2 6.84 5.25 2.71 1.38 5.84 1.91 11.25 1.91 5.59 0 8.45-0.51 11.25-2 2.06-1.11 5.33-2.29 7.25-2.63 1.92-0.34 5.08-0.12 7 0.47 2.61 0.82 12.01 9.66 37.08 34.88 27.73 27.89 33.78 34.48 34.73 37.78 0.64 2.2 1.17 6.47 1.18 9.5 0.02 3.03-0.7 7.75-1.6 10.5-1.51 4.65-13.59 16.97-171.26 174.77-93.3 93.38-171.2 170.87-173.13 172.21-1.93 1.33-6.2 3.14-9.5 4-5.53 1.45-6.55 1.44-13-0.13-6.99-1.7-7.01-1.72-35.68-29.85l-18.91 19.25c-10.4 10.59-21.05 20.61-23.66 22.26-4.32 2.74-5.53 3.02-13.25 3.03-7.19 0.02-9.19-0.36-13-2.46-2.74-1.51-17.08-15.12-36.64-34.78-26.91-27.04-32.32-32.95-33.23-36.3-0.79-2.89-0.78-5.11 0.01-8 0.61-2.2 1.83-5.11 2.73-6.46 1.17-1.77 1.62-4.7 1.6-10.5-0.02-7.12-0.36-8.6-3-12.96-1.63-2.7-4.1-5.76-5.47-6.8-1.38-1.04-4.53-2.84-7-4-3.69-1.72-5.75-2-11.5-1.58-4.24 0.31-8.58 1.33-11 2.59-2.2 1.14-4.9 2.19-6 2.33-1.1 0.15-3.8-0.08-6-0.52-3.54-0.69-7.71-4.48-36.5-33.12-22.78-22.66-33.25-33.77-35-37.16-2.01-3.88-2.49-6.28-2.49-12.32 0-5.82 0.51-8.51 2.27-12 1.65-3.25 49.74-51.91 173.5-175.56 164.31-164.15 171.44-171.13 176.72-172.91 3.02-1.02 7.07-1.84 9-1.82 1.93 0.01 6.19 0.87 9.48 1.91 5.5 1.73 7.05 2.96 19 15.15 7.16 7.3 13.3 13.26 13.64 13.25 0.34-0.01 9.34-8.75 20-19.42 13.11-13.12 21-20.23 24.38-21.97 3.86-1.99 6.49-2.58 11.5-2.59zm-34.22 65.47c0.14 0.54 4.48 5.26 9.65 10.49 5.9 5.97 9.65 10.61 10.1 12.5 0.39 1.65 0.48 4.12 0.2 5.5-0.28 1.37-1.68 5.2-3.1 8.5-1.42 3.3-2.59 7.91-2.61 10.25-0.01 2.34 0.85 6.61 1.92 9.5 1.2 3.27 3.46 6.66 6 9 2.23 2.06 4.85 4.14 5.81 4.62 0.96 0.48 4 1.42 6.75 2.1 3.97 0.98 6.13 0.97 10.5-0.02 3.02-0.68 7.07-2.08 9-3.1 1.93-1.02 5.07-1.84 7-1.82 1.93 0.02 4.5 0.59 5.71 1.26 1.22 0.66 16.93 15.83 34.92 33.71 25.04 24.87 33.17 33.56 34.66 37 1.06 2.47 2.17 6.52 2.46 9 0.36 3.08-0.15 6.54-1.61 11-1.92 5.87-3.29 7.72-14.1 19-6.58 6.87-12 12.95-12.03 13.5-0.03 0.55 1.1 2.12 2.51 3.5 1.42 1.37 3.06 4.07 3.65 6 0.59 1.92 0.79 5.19 0.45 7.25-0.36 2.2-1.96 5.22-3.87 7.31-1.79 1.95-4.83 4.02-6.75 4.59-1.94 0.57-4.83 0.69-6.5 0.26-1.65-0.42-4.91-2.26-7.25-4.09-4.11-3.21-4.32-3.26-6.37-1.57-1.16 0.96-53.83 53.5-117.04 116.75-63.21 63.25-114.91 115.45-114.89 116 0.02 0.55 4.43 5.38 9.79 10.74 5.37 5.36 10.21 9.75 10.76 9.75 0.55 0.01 75.36-74.35 166.25-165.24 90.89-90.89 165.25-165.7 165.25-166.25 0-0.55-11.69-12.7-25.98-27l-25.98-26c-15.05 2.28-21.27 2.56-25.79 2.15-4.26-0.38-9.82-1.74-13.5-3.28-3.44-1.45-8.5-4.33-11.25-6.4-2.75-2.07-6.91-6.28-9.25-9.36-2.34-3.09-5.38-8.54-6.75-12.11-1.38-3.58-2.78-9.54-3.12-13.25-0.34-3.71-0.13-9.9 0.46-13.75 0.59-3.85 1.43-7.81 1.86-8.79 0.65-1.45-4.28-6.86-25.7-28.26-14.57-14.56-26.73-26.46-27.01-26.46-0.28 0.01-8.38 7.78-17.99 17.27-9.61 9.49-17.36 17.71-17.22 18.25zm-113.01 26.99c1.75 5.42 2.24 9.25 2.21 12-0.05 4.34-0.49 5.4-3.34 8-1.8 1.65-4.52 3.67-6.03 4.5-2.36 1.29-3.19 1.31-5.93 0.14-1.75-0.75-4.53-1.59-6.18-1.85-2.84-0.46-9.86 6.38-132.75 129.36-71.36 71.42-129.77 130.52-129.79 131.35-0.01 0.82 11.69 13.09 26.01 27.25 14.31 14.16 26.59 25.57 27.28 25.36 0.69-0.22 5.07-0.95 9.75-1.64 6.63-0.97 10.26-0.99 16.5-0.07 4.67 0.69 10.6 2.41 14.25 4.14 4.13 1.95 8.62 5.33 13.25 9.96 4.68 4.68 7.85 8.9 9.55 12.75 1.41 3.16 3.01 7.77 3.56 10.25 0.56 2.47 0.99 8.1 0.97 12.5-0.02 4.4-0.54 10.47-1.16 13.5l-1.12 5.5c37.94 37.97 49.93 49.9 51.12 51l2.17 2c30.29-30.23 40.17-40.69 41.5-42.75 1.33-2.06 4.32-5.13 6.66-6.83 2.34-1.69 66.91-65.59 143.5-142 80.99-80.8 139.15-139.56 139-140.45-0.14-0.84-11.73-13.02-25.75-27.06-25.3-25.33-25.53-25.52-29-24.9-1.93 0.34-8.23 0.87-14 1.18-9.16 0.48-11.4 0.26-17.5-1.72-3.85-1.26-8.8-3.42-11-4.81-2.2-1.38-6.2-4.58-8.89-7.09-2.68-2.51-5.95-6.26-7.25-8.32-1.3-2.06-3.49-6.79-4.88-10.5-1.39-3.71-2.78-9.45-3.09-12.75-0.31-3.3-0.03-8.93 0.62-12.5 0.65-3.58 1.39-7.63 1.65-9 0.37-2.01-0.87-3.94-6.35-9.89-3.74-4.06-8.5-8.22-10.56-9.25-2.19-1.08-4.84-3.63-6.36-6.11-1.43-2.34-8.29-9.99-15.25-17-6.95-7.02-13.09-12.76-13.65-12.75-0.55 0-11.97 10.91-25.36 24.25zm16.46 27.5c0.97 0 3.91 0.54 6.52 1.2 3.78 0.96 6.13 2.6 11.5 8 5.19 5.23 6.89 7.67 7.36 10.55 0.34 2.06 0.34 5.21 0 7q-0.61 3.25-4.86 6.8c-2.34 1.95-5.15 3.8-6.25 4.1-1.1 0.3-3.46-0.18-5.25-1.05-1.79-0.88-3.93-1.6-4.75-1.6-0.83 0-3.93-2.36-6.9-5.25-2.98-2.89-6.32-6.83-7.44-8.75-1.41-2.42-1.88-4.58-1.53-7 0.27-1.93 0.69-4.51 0.93-5.75 0.24-1.24 2.34-3.6 4.67-5.25 2.33-1.65 5.03-3 6-3zm40.02 40.02c0.96-0.01 3.89 0.52 6.5 1.18 3.78 0.96 6.13 2.6 11.5 8 5.17 5.22 6.89 7.67 7.37 10.55 0.34 2.06 0.12 5.44-0.5 7.5-0.77 2.57-2.45 4.7-5.37 6.79-2.34 1.67-4.93 3.25-5.75 3.52-0.83 0.26-3.98-0.6-7-1.92-3.03-1.32-7.65-4.36-10.27-6.77-2.62-2.4-5.65-5.72-6.74-7.37-1.31-1.99-1.98-4.68-1.97-8 0-2.75 0.34-5.53 0.74-6.17 0.41-0.65 2.76-2.56 5.24-4.24 2.47-1.68 5.29-3.06 6.25-3.07zm41.25 39.4c0.55 0.19 2.8 0.84 5 1.43 2.2 0.6 6.12 3.01 8.72 5.37 2.59 2.35 5.86 5.85 7.26 7.78 1.97 2.71 2.55 4.69 2.53 8.75 0 2.89-0.4 6.04-0.88 7-0.47 0.96-3.06 3.2-10.63 8.2l-5.5-2.06c-3.03-1.14-7.5-3.71-9.95-5.73-2.44-2.01-5.71-5.46-7.27-7.66-2.27-3.19-2.83-5.06-2.81-9.25 0.02-4.6 0.43-5.63 3.28-8.35 1.79-1.71 4.6-3.72 6.25-4.47 1.65-0.74 3.45-1.2 4-1.01zm43.82 41.23c2.85 0.76 5.85 1.92 6.68 2.56 0.82 0.65 3.45 3 5.83 5.23 2.38 2.24 4.97 5.3 5.75 6.81 0.78 1.51 1.42 5.22 1.42 8.25 0 4.71-0.4 5.87-2.75 8.08-1.51 1.42-4.1 3.44-5.75 4.48-2.96 1.86-3.1 1.86-9-0.16-3.58-1.22-7.56-3.54-9.87-5.73-2.13-2.02-5.18-5.47-6.78-7.67-2.35-3.23-2.9-5.01-2.88-9.25 0.02-4.59 0.44-5.64 3.28-8.4 1.79-1.73 4.52-3.69 6.07-4.37 2.27-0.98 3.85-0.95 8 0.17z"/>
</svg>