<svg version="1.2" xmlns="http://www.w3.org/2000/svg" viewBox="0 0 506 674" width="506" height="674">
	<style>
		.s0 { fill: #ffffff } 
	</style>
	<path id="Path 0" fill-rule="evenodd" class="s0" d="m250.75 0.14c23.65-0.1 39.59 0.33 51.5 1.39 9.49 0.84 17.93 1.91 18.75 2.36 0.82 0.45 5.44 1.45 10.26 2.22 4.82 0.76 8.75 1.61 8.74 1.89-0.01 0.28 2.91 1.06 6.49 1.75 3.58 0.69 6.51 1.59 6.51 2-0.01 0.41 2.58 1.37 5.75 2.14 3.16 0.76 7.89 2.45 10.5 3.75 2.61 1.3 5.2 2.36 5.75 2.36 0.55 0 1 0.45 1 1 0 0.55 1.35 1.45 3 2 1.65 0.55 3 1.45 3 2 0 0.55 0.56 0.99 1.25 0.97 0.69-0.02 3.16 1.78 5.5 4 2.34 2.22 4.54 5.27 4.89 6.78 0.35 1.51 0.35 5.23-0.01 8.25-0.48 4.07-1.29 6.08-3.14 7.75-1.37 1.24-3.39 2.7-4.49 3.25-1.1 0.55-3.69 1-5.75 1-2.06 0-5.21-0.45-7-1-1.79-0.55-3.96-1.56-4.82-2.25-0.87-0.69-2.33-1.95-3.25-2.81-0.92-0.86-3.37-2.21-5.44-3-2.07-0.79-3.76-1.78-3.75-2.19 0-0.41-1.23-1.01-2.74-1.33-1.51-0.31-4.1-1.22-5.75-2-1.65-0.79-6.6-2.37-11-3.51-4.4-1.14-12.16-2.72-17.25-3.49-7.4-1.14-9.51-1.17-10.54-0.17-0.71 0.69-1.95 2.73-2.75 4.54-0.8 1.81-1.8 3.27-2.21 3.25-0.41-0.02-1.09 1.14-1.5 2.58-0.41 1.45-1.2 2.91-1.75 3.25-0.55 0.35-2.8 4.12-5 8.38-2.2 4.27-4.23 7.75-4.5 7.73-0.27-0.01-1.18 1.57-2 3.52-0.82 1.95-1.73 3.51-2 3.48-0.27-0.03-1.18 1.33-2 3.02-0.82 1.69-1.84 3.06-2.25 3.04-0.41-0.02-0.98 0.75-1.25 1.71-0.28 0.96-0.73 2.31-1 3-0.4 0.99 11.35 1.25 56.75 1.24 42.3 0 58.76 0.32 63.02 1.25 3.17 0.69 5.76 1.6 5.75 2.01-0.01 0.41 0.77 0.75 1.73 0.75 0.96 0.01 4.45 1.35 7.75 2.98 3.3 1.64 8.75 5.12 12.11 7.75 3.36 2.62 7.63 6.8 9.5 9.27 1.86 2.47 3.95 5.06 4.64 5.75 0.69 0.69 1.25 1.7 1.25 2.25 0 0.55 0.56 1.56 1.25 2.25 0.69 0.69 1.87 2.6 2.62 4.25 0.75 1.65 1.76 3.79 2.25 4.75 0.48 0.96 1.55 4.56 2.37 8 0.81 3.44 1.49 7.94 1.5 10 0 2.06 0.35 3.93 0.76 4.15 0.41 0.22 1.43 13.72 2.25 30 0.82 16.29 1.73 29.6 2 29.6 0.27 0 1.1 12.93 1.83 28.75 0.73 15.81 1.6 29.43 1.95 30.25 0.34 0.82 1.43 14.55 2.41 30.5 0.98 15.95 2.63 42.5 3.66 59 1.03 16.5 2 30 2.16 30 0.16 0 1.11 13.27 2.12 29.5 1.01 16.23 2.8 43.68 3.98 61 1.18 17.32 2.2 34.88 2.27 39 0.1 6.45-0.3 8.34-2.85 13.5-1.63 3.3-4.61 7.58-6.62 9.5-2.01 1.92-5.11 4.62-6.9 6-1.78 1.37-4.87 3.5-6.87 4.73-2 1.23-7.24 4.03-11.64 6.23-4.4 2.19-8.59 4-9.32 4.02-0.73 0.01-1.91 0.58-2.64 1.27-0.98 0.94-1.04 1.75-0.24 3.25 0.6 1.1 2.55 3.35 4.35 5 1.8 1.65 3.29 3.56 3.31 4.25 0.02 0.69 0.6 1.59 1.29 2 0.69 0.41 3.95 3.9 7.25 7.75 3.3 3.85 6.45 7.59 7 8.32 0.55 0.73 2.69 3.09 4.75 5.25 2.06 2.16 3.74 4.27 3.73 4.68-0.02 0.41 1 1.68 2.25 2.83 1.25 1.14 5.2 5.58 8.77 9.88 3.57 4.29 7.63 9.08 9 10.64 1.38 1.56 4.17 4.77 6.21 7.12 2.05 2.35 4.89 5.63 6.32 7.28 1.44 1.65 4.26 4.98 6.29 7.41 3.36 4.02 3.71 5.03 4.03 11.5 0.33 6.71 0.18 7.28-2.71 10.59-2.97 3.4-3.28 3.51-19.14 4l-5.75-6.01c-3.16-3.31-6.88-7.28-8.25-8.83-1.38-1.54-4.3-4.92-10.5-12.2l-414 0.03-2.5 3.12c-1.38 1.72-3.78 4.54-5.34 6.26-1.56 1.72-4.03 4.68-5.5 6.57-1.46 1.89-3.57 4.37-4.68 5.5-1.11 1.13-3.13 2.85-4.5 3.82-1.73 1.23-4.37 1.75-8.73 1.75-3.44-0.01-7.49-0.63-9-1.39-1.51-0.76-3.31-2.56-4-4-0.69-1.44-1.25-5.1-1.25-8.12 0-3.02 0.67-7.08 1.5-9 0.83-1.92 3.19-5.27 5.25-7.42 2.06-2.16 5.41-5.88 7.44-8.25 2.02-2.38 5.17-6.11 7-8.29 1.82-2.18 3.99-4.73 4.81-5.66 0.82-0.94 3.07-3.58 5-5.88 1.92-2.3 4.29-5.04 5.25-6.09 0.96-1.05 4.32-4.95 7.47-8.66 3.14-3.71 6.18-7.34 6.75-8.05 0.57-0.72 2.83-3.3 5.03-5.73 2.2-2.43 5.43-6.12 7.17-8.2 1.75-2.07 5.48-6.47 13.4-15.77l-4.79-2.19c-2.63-1.21-5.34-2.22-6.03-2.25-0.69-0.03-1.25-0.51-1.25-1.06 0-0.55-0.67-1-1.5-1-0.83 0-4.42-1.58-8-3.5-3.58-1.92-7.23-4.06-8.13-4.75-0.9-0.69-4.71-4.17-8.47-7.75-3.76-3.58-6.85-7.06-6.87-7.75-0.02-0.69-0.82-2.01-1.78-2.94-1.58-1.52-1.72-3.77-1.47-22.75 0.16-11.58 0.66-21.51 1.12-22.06 0.46-0.55 1.41-13.82 2.1-29.5 0.69-15.68 1.59-28.95 1.99-29.5 0.4-0.55 1.31-14.05 2.03-30 0.71-15.95 1.59-29.23 1.95-29.5 0.37-0.27 1.45-17.38 2.41-38 0.97-20.63 2.14-38.63 2.61-40 0.47-1.38 1.4-15.32 2.06-31 0.67-15.68 1.55-28.95 1.95-29.5 0.41-0.55 1.36-13.98 2.12-29.85 0.76-15.87 1.72-29.03 2.13-29.25 0.41-0.22 0.75-3.89 0.76-8.15 0-4.26 0.43-11.57 0.96-16.25 0.52-4.68 1.64-9.85 2.48-11.5 0.85-1.65 1.54-3.68 1.54-4.5 0-0.82 1.2-3.75 2.65-6.5 1.45-2.75 2.97-5.23 3.36-5.5 0.4-0.28 1.46-1.96 2.36-3.75 0.9-1.79 4-5.64 6.89-8.55 2.89-2.92 6.54-6.18 8.11-7.25 1.57-1.07 4.49-2.94 6.5-4.16 2-1.21 5.22-2.91 7.14-3.77 1.93-0.86 3.97-1.56 4.55-1.54 0.58 0.01 1.48-0.38 2-0.87 0.52-0.49 3.31-1.39 6.2-2 3.49-0.74 24.55-1.11 62.75-1.11 37.67 0 57.5-0.34 57.5-1 0-0.55-0.45-1-1-1-0.55 0-1.68-1.8-2.5-4-0.82-2.2-1.95-4-2.5-4-0.55 0-1.45-1.35-2-3-0.55-1.65-1.45-3-2-3-0.55 0-1.22-1.13-1.5-2.5-0.28-1.38-1.1-3.06-1.82-3.75-0.73-0.69-2.07-2.6-2.97-4.25-0.9-1.65-2.35-4.35-3.21-6-0.87-1.65-2.9-5.03-4.53-7.5-1.62-2.48-3.41-5.74-3.96-7.25-0.58-1.59-1.75-2.74-2.76-2.73-0.96 0.01-5.57 0.67-10.25 1.47-4.68 0.79-12.32 2.44-17 3.67-4.68 1.22-8.72 2.55-9 2.95-0.28 0.4-2.64 1.21-5.25 1.81-2.61 0.59-4.75 1.53-4.75 2.08 0 0.55-1.46 1.43-3.25 1.96-1.79 0.53-4.15 1.9-5.25 3.03-1.1 1.14-2.56 2.06-3.25 2.04-0.69-0.02-1.25 0.42-1.25 0.97 0 0.55-1.46 1.46-3.25 2.02-1.79 0.56-4.71 1.01-6.5 1-1.79-0.01-4.49-0.51-6-1.11-1.51-0.6-3.76-2.17-5-3.5-1.24-1.32-2.25-3.09-2.25-3.91 0-0.83-0.45-1.5-1-1.5-0.55 0-1-2.25-1-5 0-2.75 0.56-5.71 1.25-6.57 0.69-0.87 2.88-3.23 4.88-5.25 2-2.02 4.7-4.49 6-5.47 1.3-0.99 3.35-2.05 4.54-2.36 1.19-0.31 2.2-0.97 2.25-1.46 0.04-0.49 1.54-1.33 3.33-1.88 1.79-0.54 5.05-1.9 7.25-3.02 2.2-1.12 5.7-2.37 7.77-2.76 2.07-0.4 3.76-1.07 3.75-1.48-0.01-0.41 2.91-1.31 6.49-2 3.58-0.69 6.54-1.5 6.58-1.81 0.03-0.3 4.19-1.16 9.23-1.9 5.05-0.75 9.4-1.69 9.68-2.09 0.28-0.41 7.7-1.4 16.5-2.21 9.82-0.9 29.22-1.52 50.25-1.6zm-19.35 32.35c0.6 1.37 1.44 2.5 1.85 2.5 0.41 0.01 0.75 0.46 0.75 1.01 0 0.55 1.46 3.36 3.25 6.25 1.78 2.89 3.47 5.47 3.75 5.75 0.27 0.27 1.5 2.3 2.72 4.5 1.22 2.2 3.02 5.57 4 7.5 0.98 1.92 2.34 3.84 3.03 4.25 0.69 0.41 1.23 1.54 1.22 2.5-0.03 1.39 0.35 1.24 1.86-0.75 1.04-1.38 2.18-3.51 2.53-4.75 0.35-1.24 1.09-2.25 1.64-2.25 0.55 0 1.56-1.58 2.25-3.51 0.69-1.94 1.59-3.51 2-3.5 0.41 0 1.43-1.45 2.27-3.24 0.83-1.79 2.29-4.6 3.25-6.25 0.95-1.65 2.29-3.34 2.98-3.75 0.69-0.41 1.48-2.1 1.75-3.75 0.27-1.65 1.29-3.44 2.25-3.97 1.17-0.65-5.88-0.98-21.35-1l-23.1-0.03zm-125.22 85.17c-0.73 0.74-1.74 1.34-2.25 1.34-0.51 0-2.6 1.24-4.64 2.75-2.04 1.51-5.2 4.32-7.02 6.25-1.81 1.92-3.27 3.95-3.24 4.5 0.03 0.55-0.53 1.51-1.24 2.13-0.71 0.62-1.92 3.32-2.7 6-0.77 2.68-1.76 5.32-2.2 5.87-0.43 0.55-1.3 11.8-1.93 25-0.62 13.2-1.51 24.9-1.98 26-0.46 1.1-1.44 14.94-2.16 30.75-0.73 15.82-1.55 28.75-1.82 28.75-0.28-0.01-1.18 13.27-2 29.5-0.83 16.23-1.73 29.5-2 29.5-0.28-0.01-1.09 12.93-1.81 28.74-0.72 15.82-1.7 29.66-2.17 30.76-0.48 1.1-1.6 18.42-2.51 38.5-0.9 20.07-1.91 37.17-2.23 38-0.33 0.82-1.39 14.77-2.36 31-0.98 16.22-2.03 30.96-2.35 32.75-0.49 2.76-0.08 3.7 2.68 6.26 1.79 1.66 4.71 3.46 6.5 4 1.79 0.54 3.25 1.44 3.25 1.99 0 0.55 1.24 1.25 2.75 1.56 1.51 0.3 4.55 1.38 6.75 2.4 2.2 1.01 5.8 2.39 8 3.07 2.2 0.68 4.45 1.55 5 1.95 0.55 0.39 3.82 1.35 7.27 2.12 3.45 0.77 6.25 1.62 6.23 1.9-0.02 0.27 3.13 1.17 7 2 3.86 0.82 7.02 1.72 7.01 2-0.01 0.27 3.69 1.1 8.23 1.83 4.54 0.73 8.71 1.7 9.26 2.16 0.55 0.46 5.72 1.4 11.5 2.09 5.77 0.69 10.72 1.54 11 1.9 0.27 0.36 5.22 1.18 11 1.84 5.77 0.65 12.41 1.19 14.75 1.18 2.34 0 4.36 0.39 4.5 0.86 0.14 0.48 9.25 1.39 20.25 2.01 11 0.63 30.35 1.14 43 1.14 12.65 0 31.32-0.51 41.5-1.12 10.17-0.62 18.93-1.52 19.45-2 0.52-0.49 3.22-0.89 6-0.89 2.78 0 8.87-0.48 13.55-1.07 4.67-0.59 9.17-1.43 10-1.87 0.82-0.43 6.34-1.41 12.26-2.18 5.92-0.76 10.76-1.72 10.75-2.13-0.01-0.41 3.82-1.31 8.5-2 4.68-0.69 8.5-1.48 8.48-1.75-0.01-0.28 3.14-1.18 7.01-2 3.86-0.83 7.01-1.73 6.99-2-0.01-0.28 2.57-1.13 5.74-1.91 3.17-0.77 6.89-2.01 8.27-2.74 1.37-0.74 3.06-1.34 3.75-1.35 0.69 0 3.72-1.13 6.75-2.5 3.02-1.38 6.62-2.73 8-3 1.37-0.28 2.5-0.95 2.5-1.5 0-0.55 1.57-1.45 3.5-2 1.92-0.55 3.48-1.34 3.46-1.75-0.02-0.41 1.21-1.32 2.75-2.01 1.53-0.69 3.35-2.16 4.04-3.25 0.99-1.59 1.01-6.83 0.07-25.74-0.65-13.06-1.49-23.98-1.86-24.25-0.38-0.28-1.31-13.44-2.07-29.26-0.77-15.81-1.62-28.75-1.89-28.74-0.28 0-1.12-12.93-1.88-28.75-0.76-15.81-1.66-29.2-2-29.75-0.34-0.55-1.4-13.83-2.36-29.5-0.95-15.68-2.56-42.45-3.57-59.5-1.01-17.05-2.1-31.45-2.42-32-0.32-0.55-1.34-16.75-2.25-36-0.92-19.25-2.08-35.79-2.59-36.75-0.51-0.96-0.93-3.55-0.93-5.75 0-2.2-0.53-6.14-1.16-8.75-0.64-2.61-1.46-4.98-1.81-5.25-0.36-0.28-1.17-1.85-1.82-3.5-0.64-1.65-3.54-5.4-6.44-8.33-2.9-2.93-5.95-5.93-6.77-6.67-0.83-0.73-2.74-1.6-4.25-1.92-1.51-0.32-2.75-0.92-2.74-1.33 0.01-0.41-2.24-1.31-5-2-3.9-0.97-35.32-1.23-141.26-1.15-92.65 0.07-137.53 0.44-140.25 1.17-2.2 0.58-4.6 1.66-5.32 2.39zm-14.86 476.13c-1.74 2.04-6.02 7.07-9.5 11.18-3.48 4.11-7.22 8.38-8.32 9.5l-2 2.03c140.27 0.39 221.84 0.39 271.75 0.25l90.75-0.25c-6.59-7.27-10.17-11.32-12.21-13.69-2.05-2.37-5.42-6.24-7.5-8.61l-3.79-4.29-316 0.17zm164.17-454.41c82.28 0.09 111.52 0.42 113 1.28 1.1 0.64 4.25 1.98 7 2.98q5 1.81 11.13 7.84c3.37 3.31 6.48 7.14 6.91 8.52 0.43 1.37 1.38 3.06 2.12 3.75 0.74 0.69 1.59 2.94 1.9 5 0.3 2.06 0.98 4.54 1.5 5.5 0.51 0.96 1.66 18.29 2.53 38.5 0.88 20.21 1.98 37.65 2.45 38.75 0.46 1.1 1.43 15.84 2.15 32.75 0.72 16.92 1.65 30.75 2.06 30.75 0.41 0 0.75 2.7 0.75 6 0 3.3-0.34 5.99-0.75 5.98-0.41-0.02-1.09 1.33-1.5 3-0.41 1.66-2.82 5.16-5.35 7.77-2.53 2.61-5.57 5.29-6.75 5.95-1.18 0.66-4.85 2.54-8.15 4.17-3.3 1.64-8.02 3.5-10.5 4.15-2.47 0.64-4.95 1.54-5.5 1.98-0.55 0.44-4.6 1.39-9 2.11-4.4 0.71-8.22 1.63-8.5 2.04-0.27 0.41-5.9 1.3-12.5 1.98-6.6 0.68-12.22 1.57-12.5 1.96-0.27 0.4-7.92 1.22-17 1.82-9.07 0.6-20.66 1.09-25.75 1.09-5.16 0-9.47 0.44-9.75 1-0.31 0.62-9 1-23 1-14 0-22.69-0.38-23-1-0.28-0.56-4.58-1-9.75-1-5.09 0-16.67-0.49-25.75-1.09-9.07-0.6-16.72-1.42-17-1.82-0.27-0.4-6.12-1.3-13-2-6.87-0.69-12.72-1.58-13-1.96-0.27-0.39-3.87-1.27-8-1.97-4.12-0.7-7.72-1.63-8-2.09-0.27-0.45-2.75-1.3-5.5-1.9-2.75-0.6-6.8-2.01-9-3.14-2.2-1.13-4.56-2.05-5.25-2.04-0.69 0-1.46-0.55-1.72-1.24-0.26-0.69-1.5-1.58-2.75-1.98-1.26-0.4-3.85-2.27-5.78-4.15-1.92-1.89-3.98-4.04-4.56-4.78-0.59-0.74-1.61-2.92-2.28-4.84-0.96-2.73-0.98-9.22-0.1-29.5 0.61-14.3 1.5-26.9 1.96-28 0.47-1.1 1.44-15.88 2.16-32.85 0.73-16.97 1.66-31.03 2.07-31.25 0.41-0.22 0.77-4.34 0.78-9.15 0.02-4.81 0.45-13.25 0.96-18.75 0.58-6.41 1.65-11.53 2.96-14.25 1.13-2.34 2.05-4.7 2.05-5.25 0-0.55 0.45-1 1-1 0.55 0 0.99-0.56 0.98-1.25-0.02-0.69 1.02-2.15 2.29-3.25 1.28-1.1 2.53-2.46 2.78-3.02 0.25-0.56 2.48-2.62 4.95-4.58 2.48-1.96 6.08-4.14 8-4.84 1.93-0.69 4.4-1.65 5.5-2.13 1.1-0.47 3.35-1.04 5-1.26 1.65-0.22 52.95-0.35 114-0.29zm-111.5 32.21c-0.55 0.77-1.73 1.41-2.61 1.41-1 0-2.31 1.8-3.45 4.75-1.48 3.84-2.05 9.92-2.97 31.75-0.63 14.85-1.53 27.9-1.99 29-0.46 1.1-1.44 15.84-2.16 32.75-0.73 16.92-1.66 30.75-2.07 30.75-0.41 0-0.75 3.82-0.75 8.5 0 6.89 0.28 8.5 1.5 8.5 0.83 0 1.49 0.34 1.48 0.75-0.01 0.41 3.93 1.97 8.75 3.47 4.82 1.5 12.15 3.25 16.27 3.9 4.13 0.65 7.95 1.51 8.5 1.91 0.55 0.4 7.3 1.28 15 1.95 7.7 0.67 15.08 1.74 16.4 2.37 1.72 0.82 17.85 1.15 56.6 1.15 38.85 0 54.88-0.33 56.6-1.15 1.32-0.64 8.7-1.69 16.4-2.34 7.7-0.66 14.45-1.54 15-1.98 0.55-0.43 4.83-1.33 9.5-2 4.68-0.68 10.08-1.84 12-2.58 1.93-0.74 5.53-1.88 8-2.53 2.48-0.65 5.06-1.8 5.75-2.55 1-1.1 1-7.17 0-30.37-0.69-15.96-1.47-29-1.75-29-0.27 0-1.17-14.22-2-31.6-0.82-17.38-1.84-31.78-2.25-32-0.41-0.22-0.79-3.66-0.85-7.65-0.05-3.99-0.39-8.23-0.75-9.44-0.36-1.2-1.63-3.22-2.83-4.5-1.2-1.27-2.99-2.99-3.98-3.81-1.56-1.31-14.98-1.52-106.31-1.62-57.49-0.06-105.77 0.1-107.28 0.35-1.51 0.25-3.2 1.09-3.75 1.86zm-18.75 249.49c5.36-0.04 12.01 0.48 14.77 1.17 2.76 0.69 4.99 1.47 4.96 1.75-0.03 0.27 1.42 1.16 3.23 1.96 1.81 0.8 5.8 3.95 8.87 7 3.07 3.05 6.89 8.01 8.5 11.04 2.81 5.29 2.92 6 2.92 19 0 13-0.11 13.72-3 19.5-1.65 3.3-5.47 8.47-8.5 11.5-3.02 3.02-8.2 6.85-11.5 8.5-5.78 2.89-6.5 3-19.5 3-12.79 0-13.78-0.15-18.75-2.75-2.89-1.51-6.67-3.99-8.4-5.5-1.73-1.51-3.64-3.35-4.25-4.07-0.6-0.73-1.79-2.08-2.63-3-0.85-0.93-2.2-3.14-3-4.93-0.81-1.79-1.69-3.25-1.97-3.23-0.27 0.01-1.11-2.35-1.86-5.25-0.89-3.44-1.23-9.09-0.99-16.27 0.33-9.63 0.71-11.66 3.11-16.25 1.51-2.89 3.53-6.23 4.49-7.43 0.96-1.19 2.68-3.11 3.83-4.25 1.14-1.14 2.94-2.76 4-3.61 1.05-0.84 3.72-2.55 5.92-3.78 2.2-1.23 5.35-2.64 7-3.13 1.65-0.48 7.39-0.92 12.75-0.97zm-7.52 33.79c-1.53 1.45-3.04 3.98-3.37 5.63-0.33 1.65-0.32 4.24 0.02 5.75 0.34 1.51 2.02 4.21 3.74 6 2.29 2.38 4.22 3.36 7.25 3.66 3.83 0.38 4.48 0.06 9.04-4.5 4.57-4.57 4.88-5.19 4.42-8.91-0.27-2.2-1.35-5.05-2.41-6.33-1.06-1.28-3.16-2.97-4.67-3.75-1.51-0.78-3.99-1.39-5.5-1.34-1.51 0.04-3.42 0.32-4.25 0.62-0.82 0.3-2.75 1.73-4.27 3.17zm260.52-33.77c5.36-0.06 12.01 0.46 14.77 1.15 2.76 0.69 4.99 1.47 4.96 1.75-0.03 0.27 1.42 1.17 3.23 1.99 1.81 0.82 5.54 3.81 8.29 6.64 2.75 2.84 5.45 5.77 6 6.51 0.55 0.75 1.52 2.48 2.15 3.86 0.63 1.37 1.93 4.3 2.88 6.5 1.4 3.25 1.66 6.22 1.35 15.78-0.23 7.04-0.82 12.08-1.48 12.5-0.6 0.4-1.39 1.96-1.75 3.47-0.36 1.51-1.32 3.42-2.15 4.25-0.82 0.82-1.5 1.95-1.5 2.5 0 0.55-2.43 3.36-5.4 6.25-2.98 2.89-8.04 6.6-11.25 8.25-5.65 2.89-6.32 3-19.35 3-13.26 0-13.61-0.06-19.5-3.19-3.3-1.75-7.57-4.77-9.5-6.69-1.92-1.93-4.27-4.32-5.22-5.31-0.95-1-1.72-2.26-1.71-2.81 0.01-0.55-0.71-1.68-1.61-2.5-0.89-0.83-2.15-3.47-2.79-5.88-0.64-2.41-1.51-4.54-1.92-4.75-0.41-0.2-0.75-5.1-0.75-10.87 0-5.78 0.34-10.67 0.75-10.88 0.41-0.2 1.09-2 1.5-4 0.41-1.99 1.76-5.24 3-7.21 1.24-1.97 4.5-5.85 7.25-8.62 2.75-2.77 6.35-5.72 8-6.55 1.65-0.84 3.31-1.83 3.69-2.21 0.38-0.38 2.4-1.17 4.5-1.76 2.1-0.59 8.2-1.11 13.56-1.17zm-8.53 34.23c-0.98 1.19-2.05 3.52-2.37 5.17-0.32 1.65-0.31 4.24 0.03 5.75 0.34 1.51 2.02 4.21 3.74 6 2.3 2.4 4.21 3.35 7.25 3.64 3.65 0.35 4.54-0.01 7.63-3.13 1.93-1.94 4.06-4.26 4.75-5.15 0.69-0.89 1.25-2.96 1.25-4.61 0-1.65-0.34-3-0.75-3-0.41 0-1.31-1.35-2-3-0.69-1.65-2.6-3.68-4.25-4.5-1.65-0.83-4.24-1.47-5.75-1.44-1.51 0.04-3.87 0.52-5.25 1.09-1.37 0.56-3.3 1.99-4.28 3.18zm-117.72-7.26c40.84-0.1 45.86 0.06 49 1.58 1.93 0.93 4.62 2.85 6 4.27 2.17 2.25 2.49 3.47 2.49 9.58 0 6.09-0.32 7.34-2.49 9.63-1.38 1.45-4.3 3.37-6.5 4.27-3.51 1.45-9.44 1.64-48.25 1.62-31.97-0.01-45.01-0.35-47-1.21-1.51-0.66-3.8-2.12-5.09-3.25-1.28-1.13-2.98-3.64-3.77-5.56-0.79-1.93-1.43-4.51-1.41-5.75 0.01-1.24 0.9-4.16 1.99-6.5 1.27-2.76 3.29-5.01 5.75-6.41 3.71-2.13 4.58-2.17 49.28-2.27z"/>
</svg>