<svg version="1.2" xmlns="http://www.w3.org/2000/svg" viewBox="0 0 2133 2133" width="2133" height="2133">
	<style>
		.s0 { fill: #ffffff } 
	</style>
	<path id="Path 0" fill-rule="evenodd" class="s0" d="m1066.5 0c7.42 0 13.5 0.34 13.49 0.75 0 0.41 6.64 1.3 14.75 1.98 8.12 0.68 18.59 1.47 23.26 1.77 4.67 0.29 15.25 1.43 23.5 2.53 8.25 1.1 17.25 2.41 20 2.92 2.75 0.51 7.7 1.46 11 2.1 3.3 0.65 7.35 1.54 9 1.98 1.65 0.45 5.25 1.1 8 1.46 2.75 0.35 7.92 1.47 11.5 2.48 3.58 1.01 7.62 2.06 9 2.33 1.37 0.28 4.97 1.22 8 2.11 3.03 0.88 8.65 2.45 12.5 3.49 3.85 1.04 9.25 2.69 12 3.66 2.75 0.97 8.83 3.1 13.5 4.72 4.67 1.62 12.55 4.51 17.5 6.41 4.95 1.91 14.85 5.95 22 9 7.15 3.04 21.33 9.74 31.5 14.88 10.17 5.14 25.92 13.8 35 19.23 9.08 5.43 21.56 13.33 27.75 17.54 6.19 4.21 14.51 10.11 18.5 13.1 3.99 3 8.95 6.71 11.03 8.25 2.07 1.55 6.8 5.29 10.5 8.32 3.69 3.02 7.8 6.4 9.12 7.5 1.33 1.09 9.2 8.1 17.5 15.57 8.31 7.46 20.8 19.61 27.77 27 6.96 7.38 17.76 19.56 24 27.06 6.23 7.5 13.42 16.27 15.98 19.5 2.56 3.22 7.52 9.91 11.01 14.86 3.49 4.95 7.24 10.3 8.34 11.9 1.1 1.59 2.67 3.92 3.5 5.17 0.83 1.25 3.7 5.79 6.39 10.1 2.68 4.31 5.88 9.4 7.09 11.33 1.22 1.93 3.65 5.75 5.39 8.5 1.75 2.75 3.17 5.45 3.18 6 0 0.55 0.61 1.68 1.35 2.5 0.74 0.82 4.67 8.02 8.72 16 4.06 7.98 9.48 19 12.05 24.5 2.57 5.5 6.3 14.05 8.3 19 1.99 4.95 4.06 9.9 4.59 11 0.54 1.1 2.34 5.82 4.02 10.5 1.67 4.68 3.75 10.75 4.61 13.5 0.86 2.75 2.4 6.91 3.44 9.25 1.03 2.34 1.87 4.93 1.87 5.75 0 0.82 1.1 4.99 2.45 9.25 1.34 4.26 3.63 12.02 5.08 17.25 1.45 5.23 3.05 11.98 3.57 15 0.51 3.02 1.81 9.32 2.87 14 1.07 4.68 2.39 10.98 2.94 14 0.55 3.02 1.49 8.43 2.09 12 0.6 3.57 1.53 8.75 2.06 11.5 0.53 2.75 1.43 11.3 1.99 19 0.56 7.7 1.53 21.2 2.17 30 0.64 8.8 1.16 22.3 1.16 30 0.01 7.7-0.51 21.65-1.15 31-0.63 9.35-1.62 23.08-2.18 30.5-0.57 7.42-1.47 15.75-2 18.5-0.53 2.75-1.45 7.92-2.05 11.5-0.6 3.58-1.54 8.98-2.09 12-0.55 3.02-1.87 9.33-2.94 14-1.06 4.67-2.36 10.98-2.87 14-0.52 3.02-2.12 9.77-3.56 15-1.44 5.23-3.48 12.2-4.54 15.5-1.07 3.3-2.37 7.8-2.9 10-0.53 2.2-2.55 8.5-4.49 14-1.94 5.5-4.49 12.7-5.66 16-1.18 3.3-2.99 7.91-4.04 10.25-1.05 2.34-1.91 4.48-1.91 4.75 0 0.27-1.36 3.76-3.02 7.75-1.66 3.99-3.86 9.05-4.89 11.25-1.03 2.2-4.7 9.85-8.16 17-3.45 7.15-9.38 18.63-13.18 25.5-3.8 6.88-9.05 16.1-11.66 20.5-2.61 4.4-6.82 11.15-9.33 15-2.52 3.85-6.99 10.5-9.92 14.78-2.94 4.27-8.27 11.7-11.86 16.5-3.58 4.79-7.26 9.62-8.18 10.72-0.91 1.1-4.72 5.79-8.48 10.42-3.75 4.63-10.41 12.51-14.8 17.5-4.38 4.99-15.18 16.29-24 25.1-8.81 8.82-20.11 19.62-25.1 24-4.99 4.39-12.87 11.06-17.5 14.82-4.63 3.77-9.88 8.04-11.67 9.5-1.79 1.46-3.25 3.45-3.25 4.41 0 0.96 1.01 2.03 2.25 2.37 1.24 0.34 8.55 3.32 16.25 6.62 7.7 3.3 16.92 7.33 20.5 8.95 3.58 1.62 16.17 7.74 28 13.59 11.83 5.86 28.03 14.21 36 18.56 7.97 4.35 18.33 10.19 23 12.96 4.67 2.78 10.75 6.47 13.5 8.21 2.75 1.74 7.09 4.47 9.64 6.08 2.55 1.6 7.45 4.71 10.89 6.91 3.44 2.2 7.95 5.13 10.02 6.5 2.07 1.37 7.52 5.08 12.11 8.23 4.59 3.15 10.59 7.33 13.34 9.3 2.75 1.97 6.13 4.33 7.5 5.25 1.38 0.92 5.42 3.91 9 6.65 3.58 2.73 9.42 7.22 13 9.97 3.58 2.76 8.08 6.28 10 7.83 1.92 1.55 4.17 3.43 5 4.18 0.83 0.75 3.75 3.07 6.5 5.16 2.75 2.09 9.72 7.85 15.5 12.79 5.78 4.95 10.95 9.54 11.5 10.21 0.55 0.66 4.38 4.05 8.5 7.53 4.13 3.48 15.54 14.22 25.37 23.86 9.83 9.65 23.1 23.18 29.5 30.07 6.4 6.9 14.85 16.12 18.78 20.5 3.93 4.38 11.13 12.77 16 18.63 4.87 5.86 11.1 13.44 13.85 16.83 2.75 3.39 5.9 7.44 7 8.99 1.1 1.56 4.93 6.58 8.51 11.17 3.59 4.59 8.73 11.5 11.44 15.35 2.71 3.85 5.2 7.22 5.54 7.5 0.33 0.28 2.84 3.81 5.56 7.85 2.72 4.04 5.46 8.09 6.07 9 0.62 0.91 5.07 7.73 9.9 15.15 4.82 7.42 9.77 15.08 11 17 1.24 1.92 4.26 6.88 6.72 11 2.46 4.13 8.32 14.25 13.01 22.5 4.7 8.25 13.24 24.22 18.97 35.5 5.74 11.28 12.59 25.22 15.22 31 2.64 5.78 5.6 12.3 6.58 14.5 0.99 2.2 2.78 6.25 4 9 1.21 2.75 4.22 9.95 6.68 16 2.46 6.05 6.04 15.05 7.95 20 1.91 4.95 5.49 14.85 7.95 22 2.46 7.15 5.1 14.58 5.86 16.5 0.76 1.92 2.72 7.78 4.34 13 1.63 5.22 4.63 15.35 6.67 22.5 2.05 7.15 4.4 15.25 5.23 18 0.84 2.75 2.09 7.7 2.79 11 0.71 3.3 2.26 9.6 3.47 14 1.2 4.4 2.55 10.25 3 13 0.46 2.75 1.5 7.47 2.33 10.5 0.83 3.03 1.82 7.97 2.21 11 0.39 3.03 1.33 7.97 2.09 11 0.75 3.03 1.87 8.65 2.48 12.5 0.61 3.85 1.53 9.7 2.03 13 0.5 3.3 1.38 8.7 1.94 12 0.57 3.3 1.67 11.85 2.44 19 0.77 7.15 1.91 17.5 2.52 23 0.62 5.5 1.52 14.95 2.01 21 0.48 6.05 1.38 21.35 1.98 34 0.68 14.02 0.97 53.27 0.42 178l-2.57 7.5c-1.41 4.13-3.58 9.97-4.81 13-1.23 3.03-4.78 9.32-7.89 13.98-3.1 4.66-8.23 11.07-11.39 14.25-3.16 3.17-7.61 7.01-9.87 8.52-2.27 1.51-6.66 4.25-9.75 6.07-3.1 1.83-8.33 4.4-11.63 5.72-3.3 1.31-8.25 2.83-11 3.37-2.75 0.55-7.59 1.46-10.75 2.04-3.16 0.58-5.75 1.5-5.75 2.05 0 0.55-2.47 1-5.5 1-3.03 0-5.5-0.45-5.5-1 0-0.55-2.59-1.45-5.75-2-3.16-0.56-8-1.47-10.75-2.04-2.75-0.57-7.7-2.11-11-3.42-3.3-1.31-8.92-4.03-12.5-6.05-3.58-2.01-8.53-5.31-11-7.32-2.47-2.02-6.29-5.46-8.47-7.67-2.18-2.2-6.02-6.7-8.54-10-2.51-3.3-6.18-9.15-8.15-13-1.97-3.85-4.73-11.28-6.14-16.5-1.41-5.22-3.04-12.76-3.63-16.75-0.69-4.7-1.07-36.17-1.06-89.5 0.01-49.48-0.41-87.23-1.05-94.75-0.58-6.88-1.46-14.75-1.96-17.5-0.49-2.75-1.37-11.08-1.95-18.5-0.58-7.42-1.47-15.97-1.98-19-0.51-3.03-1.37-8.2-1.92-11.5-0.55-3.3-1.48-8.92-2.06-12.5-0.57-3.58-1.53-8.53-2.13-11-0.59-2.47-1.49-7.2-2.01-10.5-0.51-3.3-1.81-9.6-2.88-14-1.08-4.4-2.64-10.7-3.48-14-0.83-3.3-2.45-9.6-3.59-14-1.13-4.4-2.76-10.25-3.61-13-0.86-2.75-2.2-7.47-2.99-10.5-0.79-3.03-2.26-7.75-3.27-10.5-1.01-2.75-3.28-9.5-5.06-15-1.78-5.5-4.05-12.03-5.06-14.5-1-2.47-3.65-9.22-5.89-15-2.24-5.78-5.38-13.65-6.99-17.5-1.6-3.85-3.87-9.25-5.04-12-1.17-2.75-3.13-7.18-4.36-9.85-1.23-2.67-7.44-15.27-13.81-28-6.37-12.73-12.26-24.27-13.1-25.65-0.84-1.38-5.08-8.46-9.42-15.75-4.35-7.28-8.77-14.71-9.83-16.5-1.06-1.79-6.68-10.45-12.48-19.25-5.81-8.8-12.91-19.15-15.78-23-2.87-3.85-6.71-9.01-8.52-11.48-1.81-2.46-7.98-10.33-13.72-17.5-5.74-7.16-12.88-15.94-15.87-19.52-2.98-3.58-9.06-10.55-13.51-15.5-4.44-4.95-17.32-18.24-28.63-29.53-11.31-11.29-24.27-23.89-28.8-28-4.54-4.11-11.06-9.85-14.5-12.75-3.44-2.91-8.06-6.79-10.26-8.62-2.2-1.84-6.92-5.67-10.5-8.51-3.58-2.85-7.63-6.06-9-7.15-1.38-1.08-5.65-4.35-9.5-7.25-3.85-2.9-10.15-7.48-14-10.19-3.85-2.71-13.83-9.44-22.18-14.96-8.34-5.52-18.02-11.81-21.5-13.98-3.47-2.16-12.62-7.53-20.32-11.92-7.7-4.38-22.55-12.31-33-17.62-10.45-5.3-23.28-11.62-28.5-14.04-5.22-2.42-10.85-4.92-12.5-5.55-1.65-0.64-5.03-2.08-7.5-3.21-2.47-1.13-6.3-2.72-8.5-3.54-2.2-0.81-7.6-2.92-12-4.67-4.4-1.75-10.7-4.08-14-5.16-3.3-1.08-7.35-2.55-9-3.25-1.65-0.71-7.28-2.66-12.5-4.33-5.22-1.67-13.33-4.21-18-5.63-4.67-1.43-14.13-4.18-21-6.11-6.88-1.93-13.4-3.52-14.5-3.54-1.1-0.01-4.03-0.72-6.5-1.58-2.47-0.86-9.9-2.64-16.5-3.97-6.6-1.32-13.58-2.85-15.5-3.4-1.92-0.55-6.88-1.43-11-1.97-4.13-0.53-9.75-1.44-12.5-2.01-2.75-0.57-8.38-1.45-12.5-1.96-4.13-0.51-17.4-2.19-29.5-3.72-21.8-2.77-22.53-2.79-80.5-2.83-58.32-0.05-58.57-0.04-81.5 2.79-12.65 1.56-26.15 3.21-30 3.66-3.85 0.45-9.48 1.36-12.5 2.02-3.02 0.66-9.33 1.77-14 2.48-4.67 0.7-12.77 2.24-18 3.42-5.23 1.18-11.75 2.54-14.5 3.03-2.75 0.48-7.02 1.58-9.5 2.45-2.48 0.86-5.4 1.57-6.5 1.57-1.1 0-6.05 1.18-11 2.62-4.95 1.44-13.5 3.95-19 5.58-5.5 1.63-12.7 3.84-16 4.92-3.3 1.08-8.7 2.82-12 3.86-3.3 1.05-9.83 3.32-14.5 5.05-4.67 1.74-11.2 4.08-14.5 5.22-3.3 1.13-6.45 2.42-7 2.87-0.55 0.44-3.48 1.7-6.5 2.79-3.02 1.1-8.42 3.2-12 4.67-3.58 1.48-6.95 3.06-7.5 3.51-0.55 0.45-3.02 1.55-5.5 2.44-2.48 0.89-11.92 5.29-21 9.78-9.08 4.48-23.02 11.72-31 16.08-7.98 4.35-17.88 9.93-22 12.39-4.13 2.45-10.42 6.3-14 8.54-3.58 2.24-12.35 7.89-19.5 12.55-7.15 4.66-19.52 13.21-27.5 19-7.98 5.78-16.08 11.78-18 13.32-1.92 1.53-4.63 3.69-6 4.78-1.38 1.09-7.23 5.89-13 10.66-5.77 4.77-14.94 12.55-20.36 17.29-5.43 4.73-18.74 17.39-29.59 28.11-10.84 10.72-22.38 22.44-25.63 26.03-3.26 3.59-8.5 9.44-11.65 13-3.16 3.56-10.6 12.32-16.54 19.47-5.94 7.15-15.32 19.08-20.85 26.5-5.53 7.42-11.79 15.97-13.9 19-2.12 3.03-7.48 10.97-11.92 17.66-4.43 6.69-9.63 14.72-11.56 17.84-1.93 3.13-5.16 8.45-7.18 11.84-2.03 3.39-7.95 13.81-13.17 23.16-5.22 9.35-13.17 24.65-17.67 34-4.5 9.35-9.22 19.25-10.49 22-1.27 2.75-3.45 7.7-4.84 11-1.39 3.3-3.86 9.15-5.5 13-1.63 3.85-5.87 15.1-9.43 25-3.55 9.9-7.18 20.25-8.07 23-0.88 2.75-2.74 8.38-4.13 12.5-1.38 4.13-3.23 10.2-4.1 13.5-0.87 3.3-2.48 9.38-3.58 13.5-1.11 4.13-2.88 10.88-3.95 15-1.07 4.13-2.33 9.3-2.81 11.5-0.48 2.2-1.63 7.38-2.56 11.5-0.94 4.13-2.08 9.97-2.54 13-0.47 3.03-1.36 7.75-1.98 10.5-0.63 2.75-1.56 7.47-2.08 10.5-0.52 3.03-1.35 8.65-1.84 12.5-0.49 3.85-1.61 11.95-2.5 18-0.88 6.05-2.1 17.3-2.7 25-0.6 7.7-1.5 20.08-1.99 27.5-0.48 7.42-1.11 50.17-1.38 95-0.33 53.28-0.88 83.4-1.6 87-0.6 3.03-2.23 8.88-3.61 13-1.38 4.13-4.12 10.43-6.09 14-1.97 3.57-5.48 8.97-7.8 12-2.33 3.03-6.63 7.81-9.57 10.63-2.94 2.82-7.82 6.79-10.84 8.82-3.02 2.04-8.2 4.97-11.5 6.52-3.3 1.54-7.57 3.51-9.5 4.37-1.93 0.85-5.75 2.01-8.5 2.57-2.75 0.56-7.82 1.59-11.27 2.3-3.45 0.71-6.26 1.63-6.25 2.04 0.01 0.41-2.23 0.75-4.98 0.75-2.75 0-5.11-0.44-5.25-0.98-0.14-0.55-2.95-1.46-6.25-2.04-3.3-0.58-8.25-1.54-11-2.15-2.75-0.6-6.8-1.83-9-2.72-2.2-0.88-7.38-3.35-11.5-5.49-4.13-2.13-9.75-5.54-12.5-7.58-2.75-2.04-7.84-6.82-11.32-10.62-3.48-3.81-8.72-10.97-11.65-15.92-2.93-4.95-6.54-12.6-8.02-17-1.47-4.4-3.09-10.47-3.58-13.5-0.5-3.03-1.36-5.61-1.92-5.75-0.67-0.17-1.01-27.11-1.01-80 0-53.1 0.35-80.92 1.05-83.25 0.58-1.92 1.5-11.37 2.04-21 0.53-9.62 1.37-22.22 1.86-28 0.49-5.78 1.38-15.45 1.98-21.5 0.6-6.05 1.95-17.08 3.02-24.5 1.06-7.42 2.16-15.3 2.44-17.5 0.28-2.2 0.95-6.25 1.48-9 0.53-2.75 1.41-7.47 1.96-10.5 0.54-3.03 1.49-8.42 2.11-12 0.63-3.58 1.85-9.87 2.72-14 0.87-4.12 1.79-8.62 2.04-10 0.25-1.37 2.01-9.03 3.9-17 1.9-7.97 4.39-18.1 5.54-22.5 1.15-4.4 3.65-13.4 5.55-20 1.9-6.6 6.83-22.35 10.95-35 4.13-12.65 8.79-26.37 10.37-30.5 1.57-4.12 4.67-12.22 6.88-18 2.22-5.78 6.09-15.45 8.6-21.5 2.52-6.05 5.41-12.8 6.44-15 1.02-2.2 3.98-8.72 6.58-14.5 2.6-5.78 9.68-20.17 15.72-32 6.05-11.83 11.8-23.08 12.78-25 0.99-1.92 5.6-10.03 10.25-18 4.64-7.97 10.67-18.1 13.38-22.5 2.71-4.4 6.26-10.18 7.89-12.83 1.64-2.66 6.14-9.64 10.02-15.5 3.87-5.87 10.15-15.17 13.95-20.67 3.8-5.5 9.28-13.15 12.18-17 2.9-3.85 7.42-9.87 10.05-13.38 2.62-3.51 7.03-9.14 9.79-12.5 2.76-3.37 6.18-7.7 7.61-9.62 1.43-1.92 6.99-8.67 12.36-15 5.37-6.33 12.97-15.09 16.88-19.47 3.92-4.39 10.49-11.59 14.61-16 4.11-4.42 14.5-15 23.08-23.53 8.59-8.53 20.3-19.82 26.03-25.11 5.72-5.28 13.64-12.48 17.58-16 3.94-3.51 10.15-8.86 13.79-11.89 3.64-3.03 7.84-6.6 9.33-7.94 1.49-1.35 8.11-6.63 14.71-11.74 6.6-5.12 13.13-10.19 14.5-11.27 1.38-1.09 7-5.29 12.5-9.35 5.5-4.06 13.38-9.71 17.5-12.57 4.13-2.85 12-8.16 17.5-11.8 5.5-3.63 11.58-7.61 13.5-8.85 1.92-1.23 6.65-4.25 10.5-6.72 3.85-2.46 10.38-6.5 14.5-8.98 4.13-2.48 10.88-6.43 15-8.77 4.13-2.35 9.52-5.39 12-6.76 2.48-1.38 8.55-4.7 13.5-7.37 4.95-2.68 16.2-8.43 25-12.79 8.8-4.35 20.84-10.2 26.75-13 5.91-2.8 10.98-5.09 11.25-5.09 0.27 0 2.86-1.07 5.75-2.39 2.89-1.31 9.41-4.12 14.5-6.25 6.69-2.79 9.26-4.35 9.25-5.61 0-0.96-1.46-2.89-3.25-4.29-1.79-1.4-7.75-6.22-13.25-10.71-5.5-4.49-16.52-14.1-24.5-21.36-7.98-7.26-17.46-16.28-21.08-20.05-3.62-3.76-11.17-12.01-16.77-18.34-5.6-6.33-10.96-12.4-11.91-13.5-0.96-1.1-3.78-4.47-6.27-7.5-2.49-3.02-8.56-10.88-13.5-17.46-4.93-6.57-9.64-12.94-10.47-14.14-0.83-1.2-5.05-7.52-9.39-14.04-4.35-6.52-9.79-15.01-12.1-18.86-2.32-3.85-7.04-11.95-10.51-18-3.46-6.05-9.94-18.47-14.4-27.6-4.45-9.13-8.69-17.91-9.42-19.5-0.73-1.6-3.81-8.98-6.86-16.4-3.05-7.42-7.98-20.48-10.96-29-2.98-8.52-7.39-22.48-9.8-31-2.41-8.52-5.52-20.45-6.9-26.5-1.39-6.05-3.28-14.6-4.22-19-0.94-4.4-2.05-10.02-2.48-12.5-0.42-2.48-2.12-14.85-3.77-27.5-1.81-13.92-3.48-33.07-4.22-48.5-0.96-19.92-0.96-30.86-0.03-50 0.65-13.48 2.31-33.73 3.68-45 1.36-11.27 2.74-21.4 3.06-22.5 0.32-1.1 0.92-4.25 1.33-7 0.41-2.75 1.5-8.82 2.42-13.5 0.93-4.68 2.82-13.45 4.2-19.5 1.38-6.05 3.87-15.73 5.53-21.5 1.65-5.77 4.74-15.9 6.85-22.5 2.12-6.6 5.19-15.82 6.84-20.5 1.64-4.68 4.09-11.2 5.44-14.5 1.35-3.3 4.56-10.95 7.14-17 2.58-6.05 7.22-16.18 10.31-22.5 3.09-6.32 9.31-18.25 13.82-26.5 4.52-8.25 11.25-19.95 14.96-26 3.71-6.05 8.71-13.93 11.1-17.5 2.39-3.57 6.72-9.78 9.61-13.78 2.9-4.01 7.7-10.53 10.68-14.5 2.97-3.97 6.57-8.62 8-10.33 1.42-1.71 3.49-4.17 4.59-5.47 1.1-1.3 2.67-3.35 3.5-4.55 0.83-1.2 4.65-5.7 8.5-9.99 3.85-4.3 11.95-12.96 18-19.24 6.05-6.29 15.29-15.53 20.54-20.53 5.25-5.01 13.06-12.26 17.35-16.11 4.29-3.85 8.78-7.68 9.98-8.5 1.2-0.82 3.25-2.4 4.55-3.5 1.3-1.1 3.76-3.17 5.47-4.59 1.71-1.43 6.36-5.03 10.33-8 3.97-2.98 10.49-7.78 14.5-10.68 4-2.9 10.88-7.67 15.28-10.6 4.4-2.93 14.3-9.05 22-13.6 7.7-4.56 16.48-9.74 19.5-11.53 3.02-1.78 13.6-7.16 23.5-11.95 9.9-4.79 18.79-9.13 19.75-9.63 0.96-0.51 5.01-2.22 9-3.82 3.99-1.59 10.17-4.1 13.75-5.57 3.58-1.48 13.48-5.14 22-8.13 8.52-2.99 22.48-7.41 31-9.82 8.52-2.41 20.45-5.52 26.5-6.92 6.05-1.39 13.7-3.05 17-3.68 3.3-0.63 7.8-1.52 10-1.98 2.2-0.46 6.48-1.31 9.5-1.89 3.02-0.57 9.33-1.53 14-2.13 4.67-0.59 11.2-1.49 14.5-1.99 3.3-0.5 10.05-1.16 15-1.46 4.95-0.31 15.87-1.12 24.26-1.8 8.39-0.68 15.25-1.57 15.25-1.98-0.01-0.41 6.07-0.75 13.49-0.75zm-51 188.39c-6.6 0.92-14.48 2.14-17.5 2.69-3.02 0.56-9.33 1.86-14 2.91-4.67 1.04-10.08 2.18-12 2.53-1.92 0.35-6.65 1.57-10.5 2.7-3.85 1.13-12.85 4-20 6.37-7.15 2.37-15.02 5.05-17.5 5.94-2.48 0.9-6.86 2.72-9.75 4.05-2.89 1.33-5.48 2.42-5.75 2.42-0.27 0-6.24 2.76-13.25 6.13-7.01 3.37-17.92 9.06-24.25 12.65-6.33 3.58-16.85 10.16-23.39 14.62-6.54 4.45-12.84 8.75-14 9.56-1.16 0.8-7.49 5.75-14.06 11-6.58 5.24-15.35 12.65-19.5 16.44-4.15 3.8-10.47 9.87-14.05 13.5-3.58 3.63-9.73 10.2-13.67 14.6-3.95 4.4-10.02 11.54-13.5 15.86-3.48 4.32-8.04 10.17-10.12 13-2.09 2.83-6.85 9.64-10.58 15.14-3.73 5.5-8.89 13.49-11.46 17.75-2.57 4.26-7.29 12.81-10.49 19-3.21 6.19-7.54 15.08-9.63 19.75-2.1 4.68-4.61 10.3-5.59 12.5-0.99 2.2-2.53 6.02-3.43 8.5-0.9 2.48-2.94 8.33-4.54 13-1.59 4.68-4.45 13.68-6.34 20-1.89 6.33-3.74 13.08-4.09 15-0.36 1.93-1.49 7.1-2.51 11.5-1.02 4.4-2.34 10.93-2.93 14.5-0.59 3.58-1.31 8.52-1.6 11-0.28 2.48-1.26 9.45-2.16 15.5-1.25 8.31-1.65 18.34-1.66 41-0.02 27.47 0.22 31.64 2.75 49.5 1.53 10.73 3.14 21.98 3.58 25 0.44 3.02 1.51 7.75 2.37 10.5 0.87 2.75 1.58 5.9 1.58 7 0 1.1 1.18 6.05 2.63 11 1.45 4.95 4.57 14.85 6.94 22 2.38 7.15 5.44 15.92 6.81 19.5 1.38 3.58 3.82 9.65 5.43 13.5 1.61 3.85 5.3 11.73 8.2 17.5 2.89 5.77 7.29 14.1 9.78 18.5 2.48 4.4 5.5 9.58 6.7 11.5 1.21 1.92 4.86 7.55 8.1 12.5 3.25 4.95 8.57 12.6 11.83 17 3.27 4.4 9.11 11.83 13 16.5 3.88 4.67 11.57 13.23 17.08 19.01 5.51 5.78 14.97 15.12 21.02 20.77 6.05 5.64 12.35 11.37 14 12.74 1.65 1.37 5.7 4.63 9 7.24 3.3 2.62 7.78 6.1 9.96 7.75 2.18 1.64 4.94 3.66 6.13 4.49 1.19 0.83 4.81 3.26 8.04 5.41 3.23 2.15 9.92 6.37 14.87 9.38 4.95 3 13.5 7.9 19 10.89 5.5 2.99 14.05 7.25 19 9.47 4.95 2.22 10.35 4.63 12 5.37 1.65 0.73 5.92 2.5 9.5 3.93 3.58 1.42 10.33 3.88 15 5.46 4.67 1.59 12.77 4.24 18 5.91 5.23 1.66 11.3 3.32 13.5 3.68 2.2 0.36 5.13 1.02 6.5 1.46 1.38 0.44 4.3 1.29 6.5 1.88 2.2 0.59 13 2.56 24 4.37l20 3.29c77.58-0.02 85.53-0.29 94-1.77 5.5-0.97 14.28-2.46 19.5-3.31 5.22-0.85 12.76-2.42 16.75-3.48 3.99-1.07 7.81-1.94 8.5-1.93 0.69 0 7.1-1.78 14.25-3.96 7.15-2.18 16.38-5.14 20.5-6.57 4.13-1.44 13.35-5.05 20.5-8.02 7.15-2.98 18.17-8.06 24.5-11.31 6.33-3.24 13.82-7.19 16.65-8.77 2.83-1.59 6.65-3.73 8.5-4.77 1.84-1.04 7.18-4.39 11.85-7.43 4.67-3.04 13.17-8.94 18.88-13.11 5.71-4.16 16.51-12.78 24-19.15 7.49-6.37 17.67-15.77 22.62-20.89 4.95-5.12 10.16-10.48 11.58-11.92 1.41-1.43 6.38-7.11 11.04-12.61 4.65-5.5 9.12-10.96 9.92-12.12 0.8-1.17 3.29-4.54 5.53-7.5 2.23-2.96 6.09-8.3 8.58-11.88 2.48-3.58 6.92-10.33 9.87-15 2.94-4.67 6.82-11.2 8.61-14.5 1.8-3.3 5.71-10.95 8.71-17 2.99-6.05 6.78-13.92 8.4-17.5 1.63-3.58 4.34-10.1 6.02-14.5 1.68-4.4 4.19-11.15 5.58-15 1.38-3.85 4.06-12.4 5.96-19 1.89-6.6 4.24-15.15 5.22-19 0.98-3.85 2.12-9.02 2.54-11.5 0.41-2.48 1.7-10.12 2.87-17 1.16-6.87 2.6-17.23 3.18-23 0.65-6.38 0.9-25.01 0.63-47.5-0.38-32.27-0.72-38.6-2.62-49.5-1.21-6.87-2.64-14.98-3.19-18-0.56-3.02-1.7-8.2-2.54-11.5-0.85-3.3-1.99-8.25-2.55-11-0.55-2.75-2.53-9.95-4.4-16-1.86-6.05-4.72-14.82-6.34-19.5-1.62-4.68-4.27-11.65-5.88-15.5-1.61-3.85-5.1-11.73-7.76-17.5-2.66-5.77-8.42-17.02-12.8-25-4.38-7.98-10.93-18.93-14.56-24.34-3.63-5.42-7.27-10.84-8.1-12.04-0.83-1.21-2.85-3.98-4.49-6.16-1.65-2.18-5.14-6.66-7.76-9.96-2.61-3.3-5.99-7.55-7.5-9.44-1.51-1.89-7.79-8.86-13.95-15.5-6.15-6.63-16.68-17.01-23.38-23.06-6.71-6.05-12.93-11.68-13.83-12.5-0.9-0.82-5.14-4.2-9.42-7.5-4.27-3.3-9.02-6.9-10.55-8-1.53-1.1-7.92-5.44-14.2-9.64-6.28-4.21-16.37-10.46-22.42-13.89-6.05-3.44-16.74-9.12-23.75-12.61-7.01-3.5-13.2-6.36-13.75-6.36-0.55 0-2.69-0.85-4.75-1.89-2.06-1.04-8.03-3.49-13.25-5.43-5.22-1.95-14-4.96-19.5-6.68-5.5-1.72-12.7-3.99-16-5.03-3.3-1.04-8.47-2.33-11.5-2.86-3.03-0.53-7.3-1.46-9.5-2.07-2.2-0.61-6.7-1.55-10-2.1-3.3-0.55-13.87-2.11-23.5-3.46-13.14-1.84-23.35-2.56-41-2.87-12.92-0.24-28.9-0.09-35.5 0.33-6.6 0.42-17.4 1.52-24 2.45z"/>
</svg>